<svg xmlns="http://www.w3.org/2000/svg" width="315" height="287"><path fill="#FD7403" d="m158.313 7.688 3.84.014c9.613.12 18.538.94 27.847 3.298l2.056.504C216.3 17.558 237.264 29.42 255 47l2.672 2.523C263.578 55.197 268.458 61.193 273 68l2.027 3.023c13.937 21.667 21.585 46.558 21.364 72.314-.016 2.229 0 4.456.02 6.684.011 9.678-1.141 18.562-3.411 27.979l2.28.17c6.08.468 11.8 1.374 17.72 2.83-.593 5.34-4.875 8.083-8.797 11.281C298.35 196.68 292.55 200.71 286 204l.91 1.504c2.027 3.622 3.08 5.962 3.152 10.184-1.657 5.167-4.824 7.584-9.437 10.296A234 234 0 0 1 277 227.75l-1.828.918c-2.676 1.309-5.033 2.31-7.985 2.785L265 232a146 146 0 0 0-2 4c-2.068 2.507-4.388 4.768-6.687 7.063l-2 1.996a134 134 0 0 1-14.5 12.316l-1.888 1.387c-2.878 2.039-5.379 3.763-8.925 4.238v2c-12.04 6.032-23.868 11.82-37 15l-1.933.487c-20.02 4.824-44.152 4.627-64.067-.487l-1.999-.472C111.198 276.481 99.703 270.92 88 265v-2l-2.184-.785c-11.188-4.826-22.152-15.4-29.566-24.965-4.01-4.734-8.755-6.475-14.372-8.725-5.5-2.236-10.176-4.72-13.878-9.525-1.621-4.096-1.149-5.595.375-9.75L31 204l-2.86-1.582c-6.867-3.9-13.234-7.95-19.077-13.293l-1.556-1.406C6.097 186.383 6.097 186.383 4 184v-3q3.874-.756 7.75-1.5l2.21-.434C17.394 178.411 20.493 178 24 178l-.64-2.929c-2.058-9.839-2.89-19.268-2.797-29.321l.01-2.168C20.819 107.397 35.239 75.181 60 49l1.992-2.117c25.1-25.907 60.578-39.361 96.32-39.195"/><path fill="#613606" d="m158.313 7.688 3.84.014c9.613.12 18.538.94 27.847 3.298l2.056.504C216.3 17.558 237.264 29.42 255 47l2.672 2.523C263.578 55.197 268.458 61.193 273 68l2.027 3.023c13.937 21.667 21.585 46.558 21.364 72.314-.016 2.229 0 4.456.02 6.684.011 9.678-1.141 18.562-3.411 27.979l2.28.17c6.08.468 11.8 1.374 17.72 2.83-.593 5.34-4.875 8.083-8.797 11.281C298.35 196.68 292.55 200.71 286 204l.91 1.504c2.027 3.622 3.08 5.962 3.152 10.184-1.657 5.167-4.824 7.584-9.437 10.296A234 234 0 0 1 277 227.75l-1.828.918c-2.676 1.309-5.033 2.31-7.985 2.785L265 232a146 146 0 0 0-2 4c-2.068 2.507-4.388 4.768-6.687 7.063l-2 1.996a134 134 0 0 1-14.5 12.316l-1.888 1.387c-2.878 2.039-5.379 3.763-8.925 4.238v2c-12.04 6.032-23.868 11.82-37 15l-1.933.487c-20.02 4.824-44.152 4.627-64.067-.487l-1.999-.472C111.198 276.481 99.703 270.92 88 265v-2l-2.184-.785c-11.188-4.826-22.152-15.4-29.566-24.965-4.01-4.734-8.755-6.475-14.372-8.725-5.5-2.236-10.176-4.72-13.878-9.525-1.621-4.096-1.149-5.595.375-9.75L31 204l-2.86-1.582c-6.867-3.9-13.234-7.95-19.077-13.293l-1.556-1.406C6.097 186.383 6.097 186.383 4 184v-3q3.874-.756 7.75-1.5l2.21-.434C17.394 178.411 20.493 178 24 178l-.64-2.929c-2.058-9.839-2.89-19.268-2.797-29.321l.01-2.168C20.819 107.397 35.239 75.181 60 49l1.992-2.117c25.1-25.907 60.578-39.361 96.32-39.195M76 49l-1.836 1.398C69.88 53.775 66.488 57.841 63 62l-2.129 2.434C38.837 90.223 30.637 121.584 32 155l2-4h3l1 3c9.67 7.974 21.135 13.852 32 20q3.5 1.998 7 4c-.62 7.559-.62 7.559-2.562 9.813L73 189v3c8.939 3.434 17.804 6.406 27.188 8.375l2.39.507c6.174 1.266 6.174 1.266 12.422 1.118 2.64-1.875 2.64-1.875 4.938-4.5.866-.92 1.732-1.84 2.624-2.79 2.537-2.82 5.067-5.642 7.536-8.523 2.376-2.732 4.824-5.398 7.277-8.062 6.994-7.606 13.942-15.243 20.625-23.125 7.08 5.631 12.958 12.304 19 19l2.457 2.715q3.278 3.637 6.543 7.285c2.287 2.535 4.575 5.07 6.875 7.594a102 102 0 0 1 4 4.812l1.75 2.219 1.477 1.977c2.997 2.208 5.235 1.723 8.898 1.398 3.37-.59 6.68-1.365 10-2.187l2.776-.673c7.898-1.96 15.571-4.377 23.224-7.14-1.102-2.287-2.184-4.252-3.687-6.312-1.744-3.57-1.134-5.88-.313-9.688l2.426-.68c4.562-1.685 8.574-3.99 12.762-6.445l2.542-1.482c10.585-6.156 10.585-6.156 19.864-14.05C280 152 280 152 283 151l1 9h1q.075-5.865.11-11.731c.015-1.969.04-3.937.066-5.906.173-34.215-15.114-64.383-38.738-88.3C241.013 48.685 235.48 44.07 229 40l-1.977-1.46C214.103 29.11 198.433 24.371 183 21l-3.277-.746C141.849 13.037 105.547 25.88 76 49"/><path fill="#DFB923" d="m36 154 1.477.996A1347 1347 0 0 0 45 160l3.152 2.086q1.704 1.116 3.41 2.226l1.761 1.15c3.3 2.12 6.64 4.09 10.099 5.94l2.216 1.192a217 217 0 0 0 4.296 2.224c2.974 1.58 4.796 2.562 6.168 5.71-.12 2.918-.725 4.028-2.54 6.285-.71.906-.71.906-1.433 1.832L71 190c-5.586-.419-9.625-2.648-14-6l-1-2c.15 1.922.15 1.922 1 4 31.689 23.54 87.997 24.624 125.22 21.218 4.016-.315 8.005-.328 12.03-.28l2.293.013q2.728.02 5.457.049c-1.564 3.323-3.214 5.562-6 8h-2v2l-12 1 .5 3.375c.424 3.327.553 6.561.531 9.914l-.013 2.686c-.01 1.002-.01 1.002-.018 2.025 3.751-.278 7.5-.575 11.25-.875l3.223-.238 3.105-.254 2.857-.222c2.562-.41 4.332-1.12 6.565-2.411l1 1c3.497-.389 6.658-.886 10-2l-1-13h7l1 8h2v2l8-1-.691-2.012-.871-2.675-.88-2.637c-.61-2.922-.335-4.82.442-7.676h5l-1-4q-3.47.21-6.937.438c-1.288.08-2.576.162-3.903.246-3.02-.035-3.02-.035-4.16 1.316l-7 1-1 1c-2.19-.09-4.378-.247-6.562-.437l-3.63-.31L204 211v-2l2.371-.148 3.066-.227 3.06-.21c.825-.138 1.652-.274 2.503-.415l1-2-3-1v-1l3-.812c3.317-.947 6.513-2.124 9.739-3.347a310 310 0 0 1 7.1-2.525l2.534-.873q2.557-.878 5.117-1.75c11.046-3.436 11.046-3.436 20.51-9.693.796-2.094.796-2.094 1-4-2.16.819-2.16.819-2.883 2.922-1.35 2.512-2.445 3.117-4.992 4.328l-2.055 1.016C250 190 250 190 246 190c-3.527-4.115-4.208-6.696-4-12l1.92-1.066c18.46-9.277 18.46-9.277 34.752-21.645C280 154 280 154 282 154l.184 3.945.253 5.18.12 2.594c.225 4.498.578 8.85 1.443 13.281l1.972.244c2.948.369 5.894.75 8.84 1.131l3.104.383 2.979.39 2.745.35C306 182 306 182 309 184c-5.42 5.283-11.011 9.946-17.312 14.125l-1.776 1.219c-2.565 1.65-4.44 2.646-7.517 2.71-4.578-2.016-7.206-5.156-9.055-9.718q-.721-1.974-1.402-3.961c-2.053-6.244-2.053-6.244-6.938-10.375-5.647-.79-9.709.864-14.766 3.125C248 182 248 182 245 182v-3l-2 4c4.127.423 6.784-.223 10.438-2 4.026-1.908 7.048-2.632 11.562-2 4.002 2.816 5.028 7.953 6.574 12.375 2.114 5.675 5.213 8.939 10.051 12.625 3.76 3.167 5.156 5.638 5.938 10.5-.646 4.014-1.756 4.88-4.87 7.309-46.545 32.762-125.469 32.224-179.197 23.125-59.035-10.712-59.035-10.712-72.216-25.919-1.916-3.017-1.959-4.487-1.28-8.015 2.734-3.967 5.99-7.196 9.75-10.187 5.11-4.117 6.342-10.003 8.09-16.07 1.309-3.095 2.19-4.21 5.16-5.743 5.734-.429 10.234.868 15 4 2.71.252 2.71.252 5 0l-1-4v3c-3.026-.445-5.114-1.063-7.812-2.562-4.473-2.017-8.485-2.295-13.27-.778-2.736 1.912-3.314 3.994-4.48 7.09l-1.286 3.266L44 192c-1.961 4.577-3.65 7.41-8 10-4.596-.304-8.002-2.59-11.75-5.062l-1.854-1.205C17.181 192.27 12.493 188.363 8 184c3.154-2.103 4.646-2.404 8.324-2.852l3.115-.39 3.249-.383 3.283-.406A1553 1553 0 0 1 34 179l.076-1.864q.176-4.193.361-8.386l.12-2.934.127-2.832.11-2.602c.193-2.232.594-4.232 1.206-6.382"/><path fill="#FD7302" d="M247 61h2v2l5-1c20.66 24.715 31.269 51.608 31.063 84q-.008 2.04-.014 4.082-.018 4.959-.049 9.918h-1l-1-9c-3.193 1.751-5.95 3.758-8.75 6.063-6.893 5.447-14.634 9.6-22.25 13.937l-3.027 1.75C243.276 176 243.276 176 241 176c-1.126 4.963-1.126 4.963.313 9.688L243 188a167 167 0 0 1 2 4 765 765 0 0 1-9.25 3.125l-2.645.918-2.558.84-2.349.793c-2.785.41-3.86-.162-6.198-1.676-2.135-1.86-4.2-3.738-6.25-5.687l-3.504-3.282-1.7-1.594c-2.483-2.308-5.042-4.526-7.605-6.746-6.118-5.33-12.093-10.824-18.066-16.316-8.664-8.013-8.664-8.013-17.875-15.375.556-4.007 2.558-6.077 5.25-9l2.328-2.562c5.09-5.123 8.099-7.473 15.338-7.626 12.47-.324 22.906-2.693 32.158-11.624 2.537-2.883 4.573-5.953 6.574-9.223C230 105 230 105 232.875 102.812c2.485-1.687 2.485-1.687 2.375-4.937L235 95l1-2c.15-1.447.249-2.899.316-4.352l.127-2.578.12-2.695.13-2.719q.16-3.327.307-6.656l4-1v2h3v3h-2v3l7-6-5-1q.173-2.688.375-5.375c.07-.998.14-1.995.21-3.023C245 63 245 63 247 61"/><path fill="#FDFBF6" d="M100 66c4.647.487 7.482 2.572 11 5.438l3.453 2.738 1.776 1.42c2.263 1.794 4.564 3.535 6.869 5.275 2.656 2.016 5.278 4.072 7.902 6.129l2.676 2.055C139.279 93.62 142.562 97.828 144 105q.503 5.779.498 11.58c.096 6.516 2.215 9.924 6.643 14.756l2.109 2.039 2.14 2.086L157 137c3.946-1.327 6.267-2.928 9.125-5.937l2.008-2.09L170 127l1.617-1.504c3.883-4.201 3.646-8.578 3.758-14.058C175.853 99.655 178.674 90.67 187 82c5.148-4.676 10.61-8.271 17-11l2.813-1.25c7.363-1.732 15.57-1.816 22.187 2.25 3.306 3.091 5.826 6.22 6.273 10.8.364 12.581-2.81 22.422-11.113 31.981-9.243 9.494-18.331 13.328-31.472 13.719l-2.319-.002c-7.905.119-12.403 4.136-17.756 9.62-2.365 2.76-3.963 5.648-5.613 8.882l1.774.798c2.325 1.255 3.932 2.609 5.835 4.432l2.04 1.936 2.101 2.022c4.71 4.5 9.46 8.917 14.384 13.184 2.668 2.328 5.265 4.725 7.866 7.128a543 543 0 0 0 12.043 10.797c3.68 3.203 7.315 6.457 10.957 9.703-2.595 2.595-4.623 2.813-8.187 3.625-1.108.26-2.215.52-3.356.79-6.732 1.14-6.732 1.14-10.457.585-2.726-1.998-4.818-4.434-7-7l-1.866-2.099A503 503 0 0 1 188 187l-2.074-2.355a436 436 0 0 1-3.164-3.633c-2.797-3.194-5.68-6.307-8.558-9.428a756 756 0 0 1-11.329-12.623c-1.914-2.145-1.914-2.145-4.875-3.961-9.196 9.82-9.196 9.82-18.129 19.879-3.087 3.5-6.277 6.904-9.451 10.324a386 386 0 0 0-8.42 9.36l-1.64 1.843c-1.499 1.7-1.499 1.7-3.11 4.156-5.502 3.515-14.413.34-20.473-.964C95 199 95 199 93 197c12.612-11.709 12.612-11.709 17.375-15.812 3.103-2.681 5.98-5.525 8.855-8.446 2.439-2.4 5.012-4.625 7.602-6.86 3.276-2.844 6.484-5.762 9.7-8.675 2.905-2.598 5.875-5.113 8.874-7.602 1.726-1.738 2.624-3.37 3.594-5.605-7.04-8.816-7.04-8.816-17.25-12.75a54 54 0 0 0-7.2-.125c-6.956.35-11.834-1.067-17.55-5.125-6.04-5.581-10.873-12.29-15.719-18.902a272 272 0 0 0-4.812-6.352l-1.252-1.616a1193 1193 0 0 0-3.467-4.439C80.007 92.011 79.365 90.147 79 87c2.107-.86 2.107-.86 5-1 2.367 1.855 4.252 3.6 6.29 5.773l1.772 1.814a684 684 0 0 1 5.563 5.788q2.785 2.891 5.584 5.767a456 456 0 0 1 3.463 3.602c3.196 3.322 3.196 3.322 7.328 5.256-3.94-4.735-8.11-9.168-12.531-13.453L100 99.117a836 836 0 0 0-6.062-5.855 499 499 0 0 1-4.47-4.34l-2.674-2.575C85 84 85 84 85.22 81.692L86 80c1.813-.654 1.813-.654 4-1 2.358 1.936 4.359 3.826 6.445 6.027l1.852 1.888a891 891 0 0 1 5.828 6.022q2.918 3.013 5.85 6.012a541 541 0 0 1 3.632 3.756c1.427 1.47 2.905 2.888 4.393 4.295h2c-1.623-4.197-4.734-6.9-7.918-9.937l-3.549-3.461q-2.796-2.715-5.61-5.412a758 758 0 0 1-5.403-5.252l-1.72-1.623C94.24 79.777 94.24 79.777 92 77c.155-2.371.155-2.371 1-4 3.222-.361 4.59-.306 7.232 1.665l2.237 2.315 2.48 2.53 2.551 2.677 2.55 2.62a892 892 0 0 1 4.837 5.007 193 193 0 0 0 5.207 5.174C122 97 122 97 122 99l5 2c-2.294-4.313-5.283-7.459-8.797-10.781q-1.703-1.65-3.402-3.301a868 868 0 0 0-5.36-5.134 567 567 0 0 1-5.175-5.003l-1.645-1.531c-1.487-1.467-1.487-1.467-3.621-4.25.17-2.861.17-2.861 1-5"/><path fill="#121624" d="m158.313 7.688 3.84.014c9.613.12 18.538.94 27.847 3.298l2.056.504C216.3 17.558 237.264 29.42 255 47l2.672 2.523C263.578 55.197 268.458 61.193 273 68l2.027 3.023c13.982 21.738 21.6 46.645 21.31 72.478a505 505 0 0 0-.015 6.784c-.04 21.291-.04 21.291-4.322 27.715-3.625.188-3.625.188-7 0-1.048-5.108-1.099-9.95-1.027-15.133l.037-5.383q.036-4.195.086-8.391c.176-15.147.176-15.147-2.096-30.093l-.86-3.707C272.563 85.38 255.756 57.959 229 41l-1.98-1.465C214.097 30.112 198.434 25.372 183 22l-3.277-.746c-29.99-5.714-63.103 1.136-88.645 17.629-9.094 6.147-9.094 6.147-17.293 13.383C72 54 72 54 70 54l-.816 1.828c-1.197 2.196-2.254 3.297-4.121 4.922-12.454 12.168-20.807 29.015-26.376 45.313l-.698 2.032c-.736 2.287-1.377 4.582-1.989 6.905l-.83 3.138c-2.606 11.195-2.483 22.055-2.295 33.487q.053 4.266.091 8.53.025 2.63.07 5.26c.05 4.01-.02 7.67-1.036 11.585l-7 1a417 417 0 0 1-1.437-4.062l-.81-2.286c-9.027-31.76 1.269-68.487 16.704-96.332C45.067 65.572 52.291 57.151 60 49l1.992-2.117c25.1-25.907 60.578-39.361 96.32-39.195"/><path fill="#E2BB1E" d="m282 154 .184 3.945.253 5.18.12 2.594c.225 4.498.578 8.85 1.443 13.281l1.972.244c2.948.369 5.894.75 8.84 1.131l3.104.383 2.979.39 2.745.35C306 182 306 182 309 184c-5.42 5.283-11.011 9.946-17.312 14.125l-1.776 1.219c-2.565 1.65-4.44 2.646-7.517 2.71-4.578-2.016-7.206-5.156-9.055-9.718q-.721-1.974-1.402-3.961c-2.053-6.244-2.053-6.244-6.938-10.375-5.647-.79-9.709.864-14.766 3.125C248 182 248 182 245 182v-3l-2 4c4.127.423 6.784-.223 10.438-2 4.026-1.908 7.048-2.632 11.562-2 4.002 2.816 5.028 7.953 6.574 12.375 2.114 5.675 5.213 8.939 10.051 12.625 3.76 3.167 5.156 5.638 5.938 10.5-.646 4.014-1.756 4.88-4.87 7.309-20.538 14.456-55.008 23.626-80.068 23.191-4.477-.25-4.477-.25-8.625 1-1.327.138-2.66.225-3.992.281l-2.387.114-2.496.105q-2.434.104-4.867.219l-2.183.092c-2.068.13-2.068.13-3.989.7-2.622.614-5.034.601-7.727.587l-3.242-.01-3.367-.025-3.414-.014q-4.168-.018-8.336-.049l2-3c.394-2.324.735-4.658 1-7l3.375-.312L158 237l2-3c2.82-.293 2.82-.293 6.125-.187l3.32.082L172 234l1 2c2.13.47 2.13.47 4.691.633l2.862.254 3.01.238 3.021.262q3.707.32 7.416.613l1-3 2.266-.148 2.984-.227c.975-.07 1.95-.14 2.953-.21 2.693-.4 4.467-1.05 6.797-2.415l1 1c3.497-.389 6.658-.886 10-2l-1-13h7l1 8h2v2l8-1-.691-2.012-.871-2.675-.88-2.637c-.61-2.922-.335-4.82.442-7.676h5l-1-4q-3.47.21-6.937.438c-1.288.08-2.576.162-3.903.246-3.02-.035-3.02-.035-4.16 1.316l-7 1-1 1c-2.19-.09-4.378-.247-6.562-.437l-3.63-.31L204 211v-2l2.371-.148 3.066-.227 3.06-.21c.825-.138 1.652-.274 2.503-.415l1-2-3-1v-1l3-.812c3.317-.947 6.513-2.124 9.739-3.347a310 310 0 0 1 7.1-2.525l2.534-.873q2.557-.878 5.117-1.75c11.046-3.436 11.046-3.436 20.51-9.693.796-2.094.796-2.094 1-4-2.16.819-2.16.819-2.883 2.922-1.35 2.512-2.445 3.117-4.992 4.328l-2.055 1.016C250 190 250 190 246 190c-3.527-4.115-4.208-6.696-4-12l1.92-1.066c18.46-9.277 18.46-9.277 34.752-21.645C280 154 280 154 282 154"/><path fill="#FA7709" d="M243 241c-30.983 23.606-63.731 34.854-102.978 30.684-5.453-.827-10.74-2.107-16.022-3.684l-3.703-1.098C104.31 261.616 88.472 253.363 76 242c3.907-1.488 6.637-.452 10.563.688 7.666 2.085 15.393 3.352 23.25 4.5l3.43.504c10.375 1.479 20.653 2.457 31.136 2.546l2.904.03q4.64.035 9.28.044l3.21.01c25.052.015 52.61-.61 76.477-9.072C240 240 240 240 243 241"/><path fill="#FA7A0E" d="M238.781 47.324C243.706 51.693 248.415 56.278 253 61l-4 2v-2c-3.212 1.671-3.212 1.671-3.73 4.602l-.458 3.023-.48 3.04c-.11.77-.22 1.54-.332 2.335l5 1c-1.268 2.536-2.91 4.1-5 6h-2v-3h2v-3h-3v-2l-3 1-.184 3.945-.254 5.18-.119 2.594c-.646 12.93-.646 12.93-3.443 17.281l-3 2 .656-1.914c2.675-8.594 4.58-18.284.656-26.711-2.305-2.368-4.633-4.44-7.312-6.375l6-1 1-5h2l-1-5 3-1h-5l1.063-1.875L233 54l-1-2h3v-2l-2-1h2l-1-2-3 1v5l-4 1v2l3 1h-2l-1 2h-2l-3 1 1-5-3-1v-3h-2l-2-3-2.375 1.438c-1.514.901-3.049 1.774-4.625 2.562l.563-1.75c.487-2.507.31-3.868-.563-6.25l-2-2-4 2-1-2c1.375-1.5 1.375-1.5 3-3h2l-1-4h-2l-1 4h-2l-1 2h-2v-2l-3 1v2h-2l-.687-2.437c-1.058-2.785-1.058-2.785-3.75-3.438-2.684-.286-2.684-.286-5.563.875l1 4-3-1-1-5h-2l-1 5h-2l-2-9h-2l1 6c-3-2-3-2-4-5h-4v4h-2l-1 2v-6h-1l-2 3-1-3-4 1c.875-3.875.875-3.875 2-5-1.152-2.468-2.048-4.048-4-6h-3v3l5 2-2 3c-.633 2.113-.633 2.113-1 4l-1-5h-5v4h-2l2 3h3l-2 5-1-3-4 2-1-5h-2v-2h2v-2c-3.224 1.67-3.224 1.67-3.687 4.625L135 38h2l-1 2c-2-1-2-1-3-4h-4l-1 4-2-1 .563-2.312c.665-2.778.665-2.778-.563-5.688l-1 2h-2v2l2 1-9-1v-2h-4v-2h-2l-1 3-1 2h-2l-1 3 4 1-4 1-1 6h-6l-1-3-1 5-3 1v-2l-3-1-2 2v-2h-4l-1 4v-3l-2 1c-.652 2.025-.652 2.025-1 4l4 1-1.812.313c-2.47.776-3.51 1.758-5.188 3.687l-4-6c15.76-15.29 34.806-24.743 56-30l2.29-.645c36.267-10.042 79.194 2.322 107.491 25.97"/><path fill="#070D1C" d="M262 233c-.358 5.1-3.121 7.737-6.625 11.125l-1.728 1.698c-4.325 4.144-8.892 7.873-13.71 11.427l-1.91 1.41c-2.982 2.128-5.449 3.6-9.027 4.34v2c-12.04 6.032-23.868 11.82-37 15l-1.933.487c-20.02 4.824-44.152 4.627-64.067-.487l-1.999-.472C111.198 276.481 99.703 270.92 88 265v-2c-.72-.26-1.441-.518-2.184-.785C75.165 257.62 66.126 248.126 58 240v-5l12 2v2l1.64.219c3.308 1.095 5.423 3.071 8.11 5.281 15.283 12.15 33.233 20.27 52.25 24.5l2.406.542c7.61 1.565 15.028 1.805 22.781 1.77l3.884-.012c9.359-.112 17.882-.896 26.929-3.3l3.504-.844c18.567-4.813 37.26-14.14 51.496-27.156l1-2c1.855-.527 1.855-.527 4.188-.937 4.851-.965 8.968-4.063 13.812-4.063"/><path fill="#FD7302" d="M158 154c5.037 4.176 9.579 8.557 14 13.375l1.866 2.017c3.514 3.808 6.978 7.652 10.357 11.58 2.866 3.27 5.826 6.455 8.784 9.642 2.294 2.485 4.512 5.002 6.641 7.628 2.24 2.88 2.24 2.88 5.352 4.758-30.093 5.668-62.838 4.92-93 0l2.29-1.797c5.463-4.44 10.113-9.59 14.702-14.91 2.419-2.762 4.897-5.467 7.383-8.168C143.687 170.174 150.91 162.15 158 154"/><path fill="#DCB828" d="m282 154 .184 3.945.253 5.18.12 2.594c.225 4.498.578 8.85 1.443 13.281l1.972.244c2.948.369 5.894.75 8.84 1.131l3.104.383 2.979.39 2.745.35C306 182 306 182 309 184c-5.42 5.283-11.011 9.946-17.312 14.125l-1.776 1.219c-2.565 1.65-4.44 2.646-7.517 2.71-4.578-2.016-7.206-5.156-9.055-9.718q-.721-1.974-1.402-3.961c-2.053-6.244-2.053-6.244-6.938-10.375-5.647-.79-9.709.864-14.766 3.125C248 182 248 182 245 182v-3l-2 4c4.127.423 6.784-.223 10.438-2 4.026-1.908 7.048-2.632 11.562-2 3.981 2.812 5.016 7.887 6.574 12.287 1.775 4.74 4.005 7.973 7.426 11.713l-3 1c-.732 2.076-.732 2.076-1.062 4.5-.41 2.469-.41 2.469-.938 4.5l-2 1-2-1-1 5-3.312.25c-4.743.568-8.94 2.177-13.368 3.91-2.32.84-2.32.84-4.32.84a1216 1216 0 0 1-3-7.25l-.867-2.066C242.707 210.186 242 207.83 242 204h4v-2h5v-2l3-1v-2h2v-2l2-1c-2.757-.864-2.757-.864-6-1-2.735 1.738-2.735 1.738-5 4-3.85 2.567-5.586 1.833-10 1v2c-5.38 1.19-10.453 2.292-16 2 2.81-1.482 5.573-2.588 8.598-3.55l2.664-.861 2.8-.901c13.783-4.22 13.783-4.22 25.938-11.688.796-2.094.796-2.094 1-4-2.16.819-2.16.819-2.883 2.922-1.35 2.512-2.445 3.117-4.992 4.328l-2.055 1.016C250 190 250 190 246 190c-3.527-4.115-4.208-6.696-4-12l1.92-1.066c18.46-9.277 18.46-9.277 34.752-21.645C280 154 280 154 282 154"/><path fill="#E0BA20" d="M49 191h1v10h2v3l2 1-.656 1.645-.844 2.167-.844 2.145c-.809 2.161-.809 2.161-.656 5.043l7 3v3l3.688.438c3.139.39 6.22.886 9.312 1.562v2c1.623.222 3.249.427 4.875.625l2.742.352L81 227l2-2c2.063.25 2.063.25 4 1l1 2c1.888.685 1.888.685 4.063 1.125l2.222.508L96 230l-1.5-2.125c-1.694-3.246-1.752-5.268-1.5-8.875 3.123-1.861 5.038-2.185 8.625-1.687l2.352.3C106 218 106 218 108 219l-2 14h8v-3h2v3h2l.438-2.312C119 228 119 228 120 225h3v12h10v-5c3.044-.082 5.072.024 8 1l1 6h4l-2 6h-2v-3h-2v5l-17-1-1-3-1 1c-10.89 1.631-20.388.504-31-2l-1.972-.442c-48.99-11-48.99-11-58.028-24.558-.562-2.687-.562-2.687 0-6 2.705-4.116 5.58-7.334 10.063-9.437 3.941-2.097 5.456-4.944 7.738-8.7z"/><path fill="#CEB23C" d="M55 199q2.47.173 4.938.375l2.777.21L65 200l1 2 2.125-.187c3.562.232 5.703 1.57 8.875 3.187q2.086.475 4.188.875C85 207 85 207 86.812 209.563L88 212l3 1v-3c6.75-.125 6.75-.125 9 1 1.83.203 3.664.365 5.5.5 5.278.389 5.278.389 7.5 1.5 2.04.07 4.083.084 6.125.063l3.32-.028L125 213l1 2c2.98.393 2.98.393 6.438.5 6.34.278 6.34.278 8.562 2.5q3.487 1.53 7 3c1 1 1 1 1.188 4.438C149 229 149 229 147 231l1 1c.04 1.666.043 3.334 0 5h-7v-4l-3 1v-2h-5v5h-10v-12h-3l-.437 2.313C119 230 119 230 118 233h-2v-3h-2v3h-8q.212-2.938.438-5.875c.08-1.09.162-2.181.246-3.305C107 221 107 221 108 219q-2.625-.292-5.25-.562l-2.953-.317c-2.56-.11-4.378.102-6.797.879 1.128 4.109 2.335 8.076 4 12a241 241 0 0 1-4.375-.812l-2.46-.458C88 229 88 229 86 226c-2.756.498-2.756.498-5 2-3.846.32-6.51-.404-10-2v-2l-3.687-.437c-3.14-.39-6.22-.887-9.313-1.563v-3l-7-2c-1.723-4.085-.073-7.37 1.438-11.25l.736-1.969c.599-1.597 1.211-3.19 1.826-4.781"/><path fill="#E2BA1F" d="m186.375 206.902 2.793.01 2.832.025 2.926.014q3.537.018 7.074.049c-1.564 3.323-3.214 5.562-6 8h-2v2l-12 1 .5 3.375c.623 4.892.568 9.698.5 14.625l12-1-1 3c-7.077.121-13.972-.146-21-1l-1-3c-1.96.087-3.917.195-5.875.313l-3.305.175c-.93.17-1.861.338-2.82.512l-2 3c-3.125.688-3.125.688-6 1l-2 6 2 1-2 1c3.583.03 7.167.047 10.75.063l3.078.025 2.969.01 2.73.016c2.324-.107 4.234-.524 6.473-1.114a87 87 0 0 1 4.258-.281l2.394-.114 4.97-.21 2.386-.114 2.176-.092c1.914-.092 1.914-.092 3.816-1.189 2.374-.071 4.75-.084 7.125-.062l3.883.027L210 244c-4.918 3.279-10.579 3.068-16.375 3.625l-2.05.197c-27.293 2.552-54.42 1.782-81.575-1.822 2.93-1.954 3.763-2.253 7.063-2.5 3.937-.092 3.937-.092 5.937-2.5v4l17 2v-5h2v3h2l.438-1.875C145 241 145 241 146 239h-4v-2h6l-2-7 2-1v-7l-3.5-1.625c-4.585-2.276-8.51-5.191-12.5-8.375l3-2-1-2 3.453.016q6.385.026 12.77.039 2.756.008 5.51.02c2.652.013 5.303.018 7.954.023l2.46.015c6.8.001 13.447-1.253 20.228-1.21"/><path fill="#DCB728" d="m220 203-6 2 2 1-1 3h-11v2q3.219.039 6.438.063l3.62.035c2.83.241 2.83.241 3.942-1.098l7-1 1-1c2.35-.235 4.706-.414 7.063-.562l3.91-.254L240 207l1 5-5 1 .438 3.063L238 227l-8 1v-2h-2l-1-8h-7l1 3c.117 1.685.175 3.374.188 5.063l.042 2.66C221 231 221 231 219 233c-2.059.414-2.059.414-4.437.625l-2.372.227c-1.727.117-3.46.148-5.191.148l-1 1c-1.706.157-3.417.25-5.129.316l-3.135.127-3.298.12-3.311.13q-4.063.159-8.127.307l-1-18 12-1v-2l1.75-.625c3.064-1.873 4.405-4.345 6.25-7.375l-2 1a190 190 0 0 1-7.625.063l-2.14-.014q-2.618-.02-5.235-.049v-1l12.125-1.937 3.46-.553 6.439-1.03q3.107-.502 6.206-1.068c2.68-.399 4.24-.288 6.77.588"/><path fill="#F97F16" d="M243 241c-30.983 23.606-63.731 34.854-102.978 30.684-5.453-.827-10.74-2.107-16.022-3.684l-3.703-1.098C107.319 262.61 93.988 256.181 83 248l-1-2 6 2v2c2.652 1.075 5.284 2.095 8 3v2l3.25.375c3.129.521 5.085 1.026 7.75 2.625l2-3c1 3 1 3 0 6 4.102 1.015 4.102 1.015 8 0l1 2c2.314.73 4.648 1.401 7 2v2c3.47-.458 6.674-.891 10-2v3h2l1-2 1 2 3-2h3v2l3-1v2h2l-2-3-1-2 4-1v2l4-4 1 2-1 2 2.375-2c2.625-2 2.625-2 4.625-2v-2c2.375-.187 2.375-.187 5 0l2 3h2v3l2 2c2.993-1.098 3.846-1.677 5.25-4.625L179 260l1 3 1.813-1.5C184 260 184 260 187 260v-2c3.204-2.136 4.02-2.231 7.688-2.125l2.449.055L199 256c-1 3-1 3-2 4l-1 2-2-1 1 2c3.03.658 3.03.658 6 1v-2l2-2v-4l2-1-3-3 5 2v2h2l-1-3 1.934-.148 2.504-.227 2.496-.21L217 252l1-2c2.314-.73 4.648-1.401 7-2q-3.438.173-6.875.375l-3.867.21c-3.339.087-3.339.087-5.258 2.415v-2l-13 2 1 2a9709 9709 0 0 1-26.443-.288q-6.139-.076-12.278-.134-5.923-.056-11.846-.136a984 984 0 0 0-4.522-.045c-2.11-.017-4.219-.046-6.328-.078l-3.64-.04C129 252 129 252 126 250l1.897.027c54.853 1.863 54.853 1.863 108.353-8.777C240 240 240 240 243 241"/><path fill="#E3BC1C" d="M280 154h2l.184 3.945.253 5.18.12 2.594c.225 4.498.578 8.85 1.443 13.281l1.972.244c2.948.369 5.894.75 8.84 1.131l3.104.383 2.979.39 2.745.35C306 182 306 182 309 184c-5.42 5.283-11.011 9.946-17.312 14.125l-1.776 1.219c-2.697 1.735-4.422 2.679-7.666 2.527-4.72-1.83-6.849-5.018-8.933-9.496-1.685-4.995-2.501-10.179-3.313-15.375q-3.594-.04-7.187-.062l-2.042-.026c-3.725-.018-7.15.195-10.771 1.088v-2l-2-1 1.877-1.082a2725 2725 0 0 0 8.56-4.98l2.952-1.702c6.538-3.826 13.216-7.841 18.611-13.236"/><path fill="#F8821C" d="M253 62c18.638 18.083 31.473 46.265 32.078 72.358.02 3.881.01 7.76-.015 11.642q-.008 2.04-.014 4.082-.018 4.959-.049 9.918h-1l-1-9-4 2c-3.75-.375-3.75-.375-7-1 3.75-2 3.75-2 6-2v-2l1-1h-2l-1-3 1-2a280 280 0 0 1 4-1l2-2-2-1-1 3-3-1 1-2-2 1-1 3h-2v-3h-2l1 3h-2l-1-3 4-2v-5h5l1-2c-2.156 0-3.924.447-6 1 .375-1.937.375-1.937 1-4l2-1v-3l-1 3-2-1v-3h-2c0-2 0-2 1.375-3.625C274 117 274 117 276 117c-.898-3.132-.898-3.132-3-6l2-2 2 1v-7l-5 1c-2.125-4.625-2.125-4.625-1-8h-4v2h-2l1-3h2l-1-4h-2v-3l-2 1v-2l-2 1c-.658 3.03-.658 3.03-1 6h2l1-4c1.312 2.623.896 4.23.563 7.125l-.31 2.758L263 102h-3l1-2h-2l-1-5h-2l-1-4-3 1c.573-2.867.861-3.861 3-6l-2-3 4-7-1.312 1.938C254 80 254 80 251 81v3l-3 2-1-2h2v-2h-2l1-3a125 125 0 0 1 5-2l1-2h-4v-4l-4-2 3-1-2-1 1-2h5zm20 36 1 4 2-1-1-3zm-26-12 1 4Z"/><path fill="#141929" d="m32 90 2 2 4-2 1 2-2 3-1 3.063C35 101 35 101 33 103c-.4 2.323-.74 4.657-1 7l-4-1 1 4 4 1q.04 2.125.063 4.25l.035 2.39C33 123 33 123 32.502 124.725c-.672 3.048-.632 5.933-.635 9.053l-.004 3.994.007 2.073q.005 3.124-.007 6.248l.004 3.998.004 3.652c.114 2.89.497 5.446 1.129 8.258.269 5.06.313 10.075-1 15l-7 1a417 417 0 0 1-1.437-4.062l-.81-2.286C15.242 145.22 22.072 114.654 32 90"/><path fill="#F97B11" d="M70 54h2v6l-2.875.75c-3.187.93-3.187.93-4.437 3.25L64 66l-1 2 3 1 1 2h6l-1 4-1-2-2 1 1 3h-2l-1 3-4 4-1 3c-2.896 1.448-4.742 2-8 2v2l3 1-3 1v2h-2l1 6h-2v2h-2l1 6-8-2v-2h-2l-2 10 2 1h-3c-.074 3.343-.065 5.804 1 9h-2l-2 9h2l-.96 1.61c-1.277 2.935-1.457 5.452-1.665 8.64l-.227 3.266L33 150l2.406-.078C38 150 38 150 39.5 151.25L41 153c2.742 2.361 5.45 4.292 8.625 6 3.071 1.82 4.558 3.007 6.375 6-4.686-1.577-8.342-4.138-12.312-7l-1.956-1.367c-1.617-1.157-3.18-2.39-4.732-3.633v-2h-3l-2 4c-.903-22.147 1.706-41.78 11-62l1.516-3.465c5.593-12.07 13.452-22.884 23.066-32.074C69.108 56.036 69.108 56.036 70 54"/><path fill="#FA7C11" d="M76 241c4.398.511 8.596 1.363 12.898 2.414 6.969 1.626 13.953 2.685 21.04 3.649q3.514.478 7.027.972l3.082.418c3.115.577 5.96 1.519 8.953 2.547q2.926.407 5.875.625l2.93.227L140 252l-3 1c-1.002 3.583-1.002 3.583 0 7h-4v2h2v3c-2.187 1.75-2.187 1.75-5 3-2.812-.312-2.812-.312-5-1v-2l-3.375-.375C118 264 118 264 116 262l-2 1c-2.625-.937-2.625-.937-5-2v-5l-2 3h-3l-2-2a126 126 0 0 0-6-2v-2l-1.75-.375c-2.273-.631-4.175-1.514-6.25-2.625v-2l-1.625-.312c-4.56-1.32-7.714-2.696-10.375-6.688"/><path fill="#C7AE38" d="M55 199q2.47.173 4.938.375l2.777.21L65 200l1 2 2.125-.187c3.562.232 5.703 1.57 8.875 3.187q2.086.475 4.188.875C85 207 85 207 86.812 209.5L88 212l3 2-4 1-2-6-7-1 1.129 1.645 1.433 2.167 1.442 2.145C83 216 83 216 82 219c-2.066 1.387-2.066 1.387-4.562 2.688-.827.436-1.653.873-2.504 1.324L73 224l3.813.625 2.144.352c2.36.219 2.36.219 5.043-1.977h3l2 6-1.25-1.562L86 226c-2.137.251-3.46.46-5 2-3.846.32-6.51-.404-10-2v-2l-3.687-.437c-3.14-.39-6.22-.887-9.313-1.563v-3l-7-2c-1.723-4.085-.073-7.37 1.438-11.25l.736-1.969c.599-1.597 1.211-3.19 1.826-4.781"/><path fill="#E4BC1C" d="M64 194c5.417-.325 8.249.533 13 3 6.547 2.208 13.175 3.43 20 4.398 6.255.908 12.47 2.074 18.69 3.194 4.462.79 8.87 1.49 13.384 1.9 3.926.508 3.926.508 5.988 2.57L136 211l-3 1 3 2 1 2h-12v-2l-2.555.035-3.32.028-3.305.035C113 214 113 214 111 213a132 132 0 0 0-5.062-.437c-5.14-.42-9.934-1.332-14.938-2.563v3c-1.875-.25-1.875-.25-4-1l-.734-1.918c-1.9-3.125-4.175-3.245-7.641-4.144-7.12-1.873-10.532-4.703-15.625-9.938z"/><path fill="#FA7A0E" d="M267 96h4l1 3h-2v2l3 1-1 1h5l1 8h-4c.833 2.167.833 2.167 3 3l-1 3h-2l-1 3h-2v2h2l2 4v-5l2 2c-.375 2.125-.375 2.125-1 4h-2l-1 4c3.278-.752 3.278-.752 5-4v2h2c-1 2-1 2-2 3-1.666.04-3.334.043-5 0v5l2 1-5 1v3l1-3h2v3h2l1-4h2v2l2 1 1-4 3 3c-2.375 1.563-2.375 1.563-5 3l-2-1 1 4 3-1 1 3h-4l1 3h-4l3 3c-6.583 5.47-13.528 9.84-21 14l-1-3 3.438-1.375c3.61-1.196 3.61-1.196 4.562-3.625h2l2-5h-2c-.934-3.01-1.044-3.867 0-7l-3-1 2-10h4l1-11h-3l-1 2-2-6 3-1c-.86-4.332-.86-4.332-3-8a100 100 0 0 1 0-5l2-1v-7h2zm6 2h2l1 4-3-1z"/><path fill="#572F04" d="m268 229-1 3h-2l-2 4-1-3c-.797.36-1.593.722-2.414 1.094l-3.211 1.406-3.164 1.406c-3.292 1.122-5.762 1.301-9.211 1.094v2c-11.418 4.05-23.061 6.14-35 8l-2.861.466c-31.395 4.936-65.82 4.984-97.139-.466q-2.418-.384-4.836-.762c-7.317-1.184-14.503-2.697-21.648-4.687-2.519-.646-2.519-.646-5.168-.547-3.17-.005-4.84-1.14-7.348-3.004v-2l-2.117-.184-2.758-.254c-.905-.08-1.81-.162-2.742-.246C60 236 60 236 58 235l-1 4c-4-4.75-4-4.75-4-7 5.934-.512 10.787 1.367 16.313 3.25 28.157 9.201 57.407 12.974 87 13l2.432.003c35.85-.03 70.45-5.665 104.114-18.151C266 229 266 229 268 229"/><path fill="#E2BB1E" d="M37 177h3v2h-3zm5-2h2v4h2c-.371 2.568-.77 5.127-1.187 7.688l-.307 2.185C43.63 194.049 42.144 196.526 38 200l-2 2c-7.132-.537-14.152-5.98-19.187-10.812C15 189 15 189 15 187l-4-2 1-2 3.938.063A59 59 0 0 0 20 183l1-1c1.93-.374 3.87-.7 5.813-1 3.444-.537 6.821-1.087 10.187-2v4l2-2h3z"/><path fill="#151724" d="m58 235 12 2v2l1.61.203c3.405 1.135 5.886 3.32 8.64 5.547 3.747 2.973 7.44 5.802 11.563 8.25L95 255v2l-3 1c1.088 3.25 1.088 3.25 3 6a68 68 0 0 0 4.563-.437l2.503-.31L104 263l-2 1v7c-4.972-1.492-9.418-3.605-14-6v-2c-.72-.26-1.441-.518-2.184-.785C75.165 257.62 66.126 248.126 58 240z"/><path fill="#FB8015" d="M171 20c22.662.498 43.991 9.69 62 23-3.75 1.125-3.75 1.125-6 0v4h-2v2h-3l1-4-1.937-1.125c-2.702-2.456-2.747-4.32-3.063-7.875l-3 1 1 4-3 1-2-3-1 5-3-2-4 2-1-2c1.375-1.5 1.375-1.5 3-3h2c-1.744-3.702-1.744-3.702-5.062-5.75L200 33l-2-1c-.625-3.062-.625-3.062-1-6l-6 2-1-3h-2v3h2l1 4-5-2-2 2c-2.125-.375-2.125-.375-4-1v-2l4-1-2-1v-2h-2l-1 3h-3l1-2-6 1 2-5h-2z"/><path fill="#0F1525" d="m139 273-3 1 3 4-2 2c4.332-.86 4.332-.86 8-3q3.5-.062 7 0v-2h-6v-1h27v3h-2v2h5v-2h2v-3l4 1v5l3-2c3.688.375 3.688.375 7 1v1c-21.232 4.893-44.799 5.128-66 0-1.665-.34-3.332-.676-5-1l3-2 1-2c4.82-2.116 8.842-2.178 14-2"/><path fill="#5B3B05" d="m24 175 1 3 7 1v1l-1.896.26q-4.24.584-8.479 1.178l-2.984.408-2.852.4-2.634.365c-2.195.292-2.195.292-4.155 1.389 5.05 4.903 10.397 9.172 16.25 13.063l1.788 1.23c2.721 1.76 4.446 2.734 7.728 2.562 3.342-1.28 5.306-2.903 7.234-5.855 1.403-3.276 2.628-6.572 3.79-9.941 1.126-2.848 2.138-4.824 4.21-7.059 7.7-2.567 12.853-.529 19.875 2.906L72 182l-3-5c1.938.75 1.938.75 4 2 .813 2.063.813 2.063 1 4-1 1-1 1-3.25 1.25C68 184 68 184 65.813 182.563 61.79 180.329 57.584 179.837 53 180c-3.842 2.561-4.008 4.4-5.375 8.75-2.895 8.624-7.018 12.947-13.953 18.734-2.3 2.085-2.634 3.231-3.047 6.328.51 4.334 2.094 5.368 5.375 8.188 2.42 1.427 4.925 2.568 7.5 3.688l1.973.892A227 227 0 0 0 56 231c-1.516 1.184-1.516 1.184-4 2a56.4 56.4 0 0 1-7.75-2.937l-2.162-.983c-6.411-3.028-12.555-6.208-15.276-13.08.284-4.534 2.188-8 4.188-12l-2.86-1.582c-6.867-3.9-13.234-7.95-19.077-13.293l-1.556-1.406C6.097 186.383 6.097 186.383 4 184v-3q3.874-.756 7.75-1.5l2.21-.434C17.394 178.411 20.493 178 24 178z"/><path fill="#0F100E" d="M125 217c2.522.088 5.042.195 7.563.313l2.134.068c4.942.25 10.613.93 14.303 4.619.188 3.438.188 3.438 0 7l-2 2 1 1c.04 1.666.043 3.334 0 5h-7l-2-5-7-1v5h-8c-.107-6.44.038-12.626 1-19"/><path fill="#080D1C" d="m218 257 2 1-1 2c-2.562.625-2.562.625-5 1l1 3c-.437 2.188-.437 2.188-1 4l-2.125-.324c-6.604-.835-10.903-.716-16.875 2.324-2.29 3.435-2.178 4.985-2 9l-3.25-.062c-2.898.048-5.036.194-7.75 1.062l-1-5-3-1v3h-2v2l-6 1 1-3h2v-3l-2.38.032c-3.623.042-7.247.067-10.87.093l-3.742.05c-7.9.042-15.266-.646-23.008-2.175q-2.5-.41-5-.812c-8.097-1.646-15.723-5.348-23-9.188 3.877-1.292 4.978-.4 8.688 1.188a115 115 0 0 0 15.75 5.062l2.004.493c18.063 4.31 38.592 4.031 56.558-.743l3.504-.844c7.473-1.937 14.379-4.673 21.344-7.958 1.693-.786 3.42-1.5 5.152-2.198"/><path fill="#6D5A3A" d="m292 176 1 2c2.283.396 2.283.396 5 .5 5.182.373 9.96 1.26 15 2.5-.593 5.34-4.875 8.083-8.797 11.281C298.35 196.68 292.55 200.71 286 204l.91 1.504c2.027 3.622 3.08 5.962 3.152 10.184-1.624 5.063-4.943 7.858-9.542 10.332q-1.847.912-3.707 1.792l-1.905.944C270.297 231 270.297 231 268 231v-3l3.43-1.68 4.445-2.195 2.262-1.105 2.168-1.075 2-.984c1.875-.964 1.875-.964 3.695-2.961.337-4.466.248-8.065-2-12-1.833-1.125-1.833-1.125-4-2-7.374-4.538-9.93-13.65-13.203-21.285-.673-1.706-.673-1.706-1.797-2.715-4.619-.481-7.384.012-11.562 2.063-3.866 1.886-6.203 2.24-10.438.937l1-4h3l-2 3 2.598-1.094C259.68 176.002 259.68 176.002 265 177c4.705 2.955 6.287 6.342 8 11.438 1.753 5.183 3.494 9.189 8 12.562 4.55.134 8.134-2.69 11.813-5.125l1.861-1.213C299.466 191.485 303.86 188 308 184l-1.836-.367L288 180v-2h4z"/><path fill="#171C2C" d="M215 20c4.758 1.395 8.848 3.435 13.063 6l1.977 1.202C241.736 34.444 251.526 43.065 261 53c-3 1-3 1-6.187-.437L252 51l-1 3-.812-2.75c-1.093-2.99-2.196-4.824-4.188-7.25l-1-2h-2l-1 4c-5.662-1.452-10.495-4.316-15-8v-2h-3v-2l-1.812-.437c-1.75-.45-3.475-.992-5.188-1.563-1.343-4.31-2-7.478-2-12"/><path fill="#FA7E13" d="M253 62c5.27 5.27 7.65 8.509 10 15.566.75 2.583.75 2.583 3 3.434.727 1.979 1.398 3.98 2 6l-5 2v-2l-2 1c-.658 3.03-.658 3.03-1 6h2l1-4c1.312 2.623.896 4.23.563 7.125l-.31 2.758L263 102h-3l1-2h-2l-1-5h-2l-1-4-3 1c.573-2.867.861-3.861 3-6l-2-3 4-7-1.312 1.938C254 80 254 80 251 81v3l-3 2-1-2h2v-2h-2l1-3a125 125 0 0 1 5-2l1-2h-4v-4l-4-2 3-1-2-1 1-2h5zm-6 24 1 4Z"/><path fill="#E4BB1C" d="m251 192 8 1-1 2h-2v2h-2l1 3h-4v2h-5v2h-4v2h-5v2l-2.371.184-3.066.254c-1.01.08-2.02.162-3.06.246-2.44.048-2.44.048-3.503 1.316l-7 1-1 1c-2.19-.09-4.378-.247-6.562-.437l-3.63-.31L204 211v-2l2.371-.148 3.066-.227c1.01-.07 2.02-.14 3.06-.21.825-.138 1.652-.274 2.503-.415l1-2-3-1v-1a881 881 0 0 1 7.5-2l2.11-.578c4.931-1.279 9.296-1.606 14.39-1.422v-2l3.063.313c5.17-.41 7.007-2.025 10.937-5.313z"/><path fill="#1D222F" d="M126 13c-6.5 3-6.5 3-11 3l.688 2.313L116 21c-1.437 1.813-1.437 1.813-3 3l1 2-3 1-1.371 1.547c-2.25 2.007-3.724 1.79-6.692 1.703-.877-.015-1.755-.03-2.66-.047C98 30 98 30 96 29l-1 5h-2v2l-8 1 2-3h-3c-2.187-1-2.187-1-4-2 33.84-23.318 33.84-23.318 46-19"/><path fill="#12130F" d="m262 199 1 5a665 665 0 0 1-4.312 1.5l-2.426.844C254 207 254 207 251 207v3l1.863-.656 2.45-.844 2.425-.844C260 207 260 207 263 207l-1 4-9 2 1 2 2.3-.656 3.012-.844 2.989-.844C265 212 265 212 268 212l1 4a3652 3652 0 0 1-9.375 3.5l-2.695 1.012-2.578.957-2.38.888C250 223 250 223 248 223a2543 2543 0 0 1-3-7.375l-.867-2.117C242 208.227 242 208.227 242 206a3164 3164 0 0 1 8.875-3.5l2.55-1.012 2.442-.957 2.254-.888C260 199 260 199 262 199"/><path fill="#613603" d="M34 151c3 0 3 0 5.285 2.23L42 156a142 142 0 0 0 6.438 4.313l1.83 1.158C56.726 165.524 63.35 169.272 70 173c6.84 3.84 6.84 3.84 8 5-.475 7.366-.475 7.366-2.5 9.813L74 189l-1 3 2.57.34c3.661.705 6.844 1.845 10.305 3.222l3.492 1.38L92 198v2c-7.808-1.523-15.055-4.021-22.437-6.937l-2.619-1.018c-4.56-1.84-8.27-3.673-11.944-7.045l1-4h5l-4 1c3.644 4.638 8.63 6.074 14 8l.875-1.812C73 186 73 186 75 183c.36-2.504.36-2.504-1-5-2.685-1.94-5.637-3.277-8.625-4.687-6.545-3.256-12.814-6.658-18.875-10.75l-1.866-1.251c-2.783-1.906-5.371-3.799-7.634-6.312-.925 2.776-1.272 4.993-1.535 7.887l-.264 2.842-.264 2.958-.275 2.995Q34.327 175.34 34 179h-5l-1-2h4l-.032-1.956c-.041-2.931-.067-5.863-.093-8.794l-.05-3.078-.02-2.969-.032-2.73c.24-2.612.904-4.23 2.227-6.473"/><path fill="#0B0F19" d="M164.813 217.813c3.142.308 4.122 1.12 6.34 3.421 2.11 2.846 4.011 5.737 5.847 8.766.459.755.918 1.51 1.39 2.29.906 1.549 1.765 3.126 2.61 4.71h-8l-1-3c-1.98.113-3.959.241-5.937.375-1.103.07-2.205.14-3.34.21L160 235l-1 2h-8a447 447 0 0 1 5-10l1.164-2.445c2.156-4.093 3.078-5.319 7.649-6.743"/><path fill="#211D07" d="m194.063 216.813 3.035-.043c3.008.238 5.18.966 7.902 2.23v3l-3-.562c-4.17-.615-7.85-.093-12 .562v3l8-1 2 3-9 1v3c7.582-.528 7.582-.528 15-2l1-2-3-1 1-2 4 2v5c-7.928 4.845-16.92 5-26 5l-1-18c4.253-.709 7.824-1.16 12.063-1.187"/><path fill="#070D16" d="M55 199c6.856 1.926 13.433 4.247 20 7l-1 4a513 513 0 0 1-4.25-.875l-2.39-.492c-2.328-.625-4.25-1.481-6.36-2.633.64 3.088.64 3.088 2.848 3.95l2.215.738 2.222.761L70 212l-1 4-10-3-1 2 2 .313c3.838.88 7.331 2.257 11 3.687l-1 4c-13.384-2.59-13.384-2.59-19-6-.934-1.68-.934-1.68-1-4a83 83 0 0 1 2.438-7.25l.736-1.969c.599-1.597 1.211-3.19 1.826-4.781"/><path fill="#E97F27" d="M97 65h6l-3 2c.337 5.163 3.221 7.697 6.785 11.07l1.745 1.706a895 895 0 0 0 5.532 5.349 1141 1141 0 0 1 5.544 5.37 360 360 0 0 0 3.456 3.33c1.37 1.335 2.662 2.75 3.938 4.175v3l-5-2v-2l-1.746-.723c-2.726-1.544-4.28-3.335-6.317-5.715-3.498-3.96-7.022-7.879-10.687-11.687l-2.672-2.82c-2.402-2.292-2.402-2.292-5.406-2.36L93 74c.867 4.662 3.713 7.093 7.004 10.297l1.812 1.799c1.908 1.892 3.827 3.773 5.746 5.654q1.946 1.922 3.89 3.848Q116.214 100.31 121 105l-1 3c-4.194-1.62-6.878-4.728-9.902-7.918l-3.448-3.549a945 945 0 0 1-5.384-5.61 618 618 0 0 0-5.23-5.403l-1.608-1.72C92.751 82.03 92.751 82.03 90 80c-2.811-.002-2.811-.002-5 1v-3h6l-1-7 8 1z"/><path fill="#FB790D" d="M148 22v3l5 2-2 3c-.633 2.113-.633 2.113-1 4l-1-5h-5v4h-2l2 3h3l-2 5-1-3-4 2-1-5h-2v-2h2v-2c-3.224 1.67-3.224 1.67-3.687 4.625L135 38h2l-1 2c-2-1-2-1-3-4h-4l-1 4-2-1 .563-2.312c.665-2.778.665-2.778-.563-5.688l-1 2h-2v2l2 1-4-1 1-7 4 1v-3l6-1 2 5v-4a69 69 0 0 1 1-4c4.655-.838 8.37-1.016 13 0"/><path fill="#DBB72E" d="m147 220 4 1v6l3 1-1.937 1.25c-2.273 1.928-2.665 2.864-3.063 5.75h2v2h7v1l-6 1-2 6 2 1-2 1c3.583.03 7.167.047 10.75.063l3.078.025 2.969.01 2.73.016c2.324-.107 4.234-.524 6.473-1.114a87 87 0 0 1 4.258-.281l2.394-.114 4.97-.21 2.386-.114 2.176-.092c1.914-.092 1.914-.092 3.816-1.189 2.374-.071 4.75-.084 7.125-.062l3.883.027L210 244c-4.918 3.279-10.579 3.068-16.375 3.625l-2.05.197c-27.293 2.552-54.42 1.782-81.575-1.822 2.93-1.954 3.763-2.253 7.063-2.5 3.937-.092 3.937-.092 5.937-2.5v4l17 2v-5h2v3h2l.438-1.875C145 241 145 241 146 239h-4v-2h6l-2-7 2-1c.27-4.65.27-4.65-1-9"/><path fill="#E77A21" d="M243 241c-15.56 11.706-15.56 11.706-24 16v-2h2l-1-4 5-3q-3.438.173-6.875.375l-3.867.21c-3.339.087-3.339.087-5.258 2.415v-2l-13 2 1 2a9709 9709 0 0 1-26.443-.288q-6.139-.076-12.278-.134-5.923-.056-11.846-.136a984 984 0 0 0-4.522-.045c-2.11-.017-4.219-.046-6.328-.078l-3.64-.04C129 252 129 252 126 250l1.897.027c54.853 1.863 54.853 1.863 108.353-8.777C240 240 240 240 243 241"/><path fill="#FDF5E5" d="M87 79c4.39.255 6.94 3.49 9.86 6.426l1.664 1.648q1.736 1.726 3.459 3.463a658 658 0 0 0 5.326 5.274q1.683 1.68 3.363 3.365l1.619 1.585C115.828 104.365 116 106.02 116 111l-3 1a2113 2113 0 0 1-12.018-11.743 855 855 0 0 0-4.095-3.992 827 827 0 0 1-5.86-5.75l-1.871-1.793c-1.7-1.698-1.7-1.698-4.156-4.722.282-2.114.472-3.472 2-5"/><path fill="#110C14" d="m38 83 7 2v2h-2l.172 3.543c-.004 4.343-1.21 7.821-2.922 11.77C33.156 120.188 32.248 137.9 32 157h-1q-.075-6.051-.11-12.103-.015-2.05-.04-4.099c-.115-9.141.448-17.81 2.15-26.798l-2.375-.375C28 113 28 113 26 111c1.375-1.5 1.375-1.5 3-3h2l.313-2.875C32 102 32 102 35 100c1.288-3.186 2-5.555 2-9l-4 3v-4l4-1z"/><path fill="#1B180E" d="M77 207c5.461.88 5.461.88 8 2 1.5 3.125 1.5 3.125 2 6l1.938-1.562c4.243-1.992 7.554-1.253 12.062-.438-2.679 2.872-5.438 4.338-9 6 1.31 4.234 2.944 8.074 5 12-5.461-.88-5.461-.88-8-2-1.5-3.125-1.5-3.125-2-6l-2.437 1.563c-4.56 1.84-7.826 1.31-12.563.437 2.978-3.198 6.185-4.913 10-7-1.45-3.791-3.152-7.387-5-11"/><path fill="#FDF5E4" d="M93 73c3.222-.361 4.59-.306 7.232 1.665l2.237 2.315 2.48 2.53 2.551 2.677 2.55 2.62a892 892 0 0 1 4.837 5.007 193 193 0 0 0 5.207 5.174C122 97 122 97 122 99l5 2-1-4h2v6l-6-1-1-4c-3.041 1.67-3.041 1.67-4 4a1681 1681 0 0 1-10.736-10.461 680 680 0 0 0-3.658-3.556 658 658 0 0 1-5.235-5.124l-1.673-1.594C94.181 79.749 94.181 79.749 92 77c.164-2.366.164-2.366 1-4"/><path fill="#F87C10" d="M166 19c-1.312 1.5-1.312 1.5-3 3h-3v-2l-1.652.438c-4.85 1.193-9.21 1.697-14.196 1.566-3.126-.006-6.074.472-9.152.996l1 7h-2l-2-4-2 2v-3l-4 1v3l-4-1v6l-6 1v-2h-4v-2l-6 1v2h-3v2c-3.98 1.17-7.916 2.257-12 3 2.77-3.34 6.496-4.995 10.313-6.875.71-.352 1.422-.703 2.155-1.065C123.935 21.146 143.611 18.793 166 19"/><path fill="#5C3407" d="M92 198q2.75.431 5.5.875l3.094.492c2.406.447 4.795.992 7.164 1.606 25.764 6.541 53.894 4.755 80.242 5.027v1c-31.652 6.123-64.933.847-96-6z"/><path fill="#623706" d="m268 229-1 3h-2l-2 4-1-3c-.797.36-1.593.722-2.414 1.094l-3.211 1.406-3.164 1.406c-3.292 1.122-5.762 1.301-9.211 1.094v2c-15.912 5.644-32.603 7.86-49.312 9.75l-3.413.387c-6.131.653-12.11.993-18.275.863l3-1v-2l2.528-.212c29.168-2.495 56.774-7.465 84.331-17.686C266 229 266 229 268 229"/><path fill="#080D1E" d="m53 56 2 8h-2l-1 2-1 1c-.032 2.231.068 4.446.16 6.676-.177 2.565-.874 4.12-2.16 6.324h-2v4l-3.437.438c-3.37.174-3.37.174-4.563 1.562l-2 1v2l-4 1c3.657-11.837 10.49-21.365 18-31z"/><path fill="#0B0F16" d="M241 208v4l-5 1 .438 3.063L238 227l-8 1-3-13-7 2-1-5q4.37-1.298 8.75-2.562l2.5-.749 2.422-.693c.733-.215 1.466-.43 2.222-.65 2.345-.385 3.864-.075 6.106.654"/><path fill="#111315" d="M102 214c7.35-.432 13.902 1.182 21 3v4l-8-1-1 13h-8q.212-2.938.438-5.875c.08-1.09.162-2.181.246-3.305C107 221 107 221 108 219l-7-1z"/><path fill="#D8B52E" d="M250 176v2l1.98-.992c3.815-1.273 7.365-1.225 11.333-1.133l2.244.027c1.814.024 3.629.06 5.443.098l2 12c-2-2-2-2-3.437-5-1.372-3.22-1.372-3.22-4.563-5-5.677-.695-9.685.853-14.766 3.125C248 182 248 182 245 182v-3l-2 4c4.127.423 6.784-.223 10.438-2 4.154-2 6.994-2.389 11.562-2l1 2-2 1a78 78 0 0 0-2 5l-2-1 2-5c-2.16.819-2.16.819-2.883 2.922-1.35 2.512-2.445 3.117-4.992 4.328l-2.055 1.016C250 190 250 190 246 190c-2.599-3.032-3.867-5.244-4.562-9.187.562-2.813.562-2.813 2.875-4.75C247 175 247 175 250 176"/><path fill="#151928" d="M262 233c-.358 5.101-3.121 7.737-6.625 11.125-.57.56-1.14 1.12-1.726 1.698-6.589 6.32-14.89 14.257-23.649 17.177l-1-3 2-2v-3c.375-2.125.375-2.125 1-4l2-1 1 5 7-1 .75-2.25c1.35-2.97 2.968-4.468 5.25-6.75.787-2.138.787-2.138 1-4l-5-1v-2l1.758-.332C251.244 236.554 256.637 233 262 233"/><path fill="#171C2B" d="M214 267c2.332.344 4.665.68 7 1-7.654 6.316-18.282 9.701-28 11l-1-7 2-1-1-2c7.475-2.482 13.203-3.712 21-2"/><path fill="#171C2C" d="M295 128h1v35h-1l-1-7-6 3c-1.65-1.65-1.225-3.637-1.316-5.91l-.127-2.998-.12-3.155-.13-3.166q-.16-3.885-.307-7.771c6.152.586 6.152.586 8 1l1 2z"/><path fill="#0B0D1A" d="m58 235 12 2v2l1.703.277c2.891.91 4.696 2.384 7.047 4.286l2.422 1.94L83 247c-3.435 2.29-4.985 2.178-9 2v2h-2v-2h-2.5c-5.065-1.447-8.494-4.697-11.5-9z"/><path fill="#16140B" d="M125 217c2.522.088 5.042.195 7.563.313l2.134.068c4.942.25 10.613.93 14.303 4.619q.061 3.5 0 7h-1l-1-6c-1.94.276-1.94.276-4 1l-2 3c-2.383.293-2.383.293-5.125.188l-2.758-.083L131 227c-1.46-2.647-2-3.894-2-7h-3l-1 14c4.861-.492 4.861-.492 7-3v5h-8c-.107-6.44.038-12.626 1-19"/><path fill="#DAB632" d="M58 169q3.944 1.892 7.875 3.813l2.262 1.08 2.168 1.064 2 .968C74 177 74 177 76 180c-.232 4.4-2.136 6.767-5 10-5.586-.419-9.625-2.648-14-6l-1-2-2 2v-3l-5 4c.313-1.875.313-1.875 1-4 3.923-2.615 6.037-2.031 10.566-1.492 2.933.593 4.95 1.86 7.434 3.492 2.71.252 2.71.252 5 0l-1-4v3c-3.344-.557-6.033-1.352-9-3v-2l4 1c-2.142-2.301-4.03-4.017-6.75-5.625L58 171z"/><path fill="#E1741C" d="m126 189 1 2a775 775 0 0 1-2.875 4.438l-1.617 2.496C121 200 121 200 119 201c19.045 3.164 37.804 3.6 57.063 2.563l2.215-.12c3.661-.225 7.134-.713 10.722-1.443a88 88 0 0 1 4.813-.062l2.394.027L198 202l-2-7 2.25 2.313A59 59 0 0 0 205 203c-30.093 5.668-62.838 4.92-93 0l2.27-1.777a82 82 0 0 0 6.418-5.786l1.761-1.753c1.747-1.809 1.747-1.809 3.551-4.684"/><path fill="#D57C38" d="m82 246 6 2v2c2.652 1.075 5.284 2.095 8 3v2l3.25.375c3.129.521 5.085 1.026 7.75 2.625l2-3c1 3 1 3 0 6 4.102 1.015 4.102 1.015 8 0l1 2c2.314.73 4.648 1.401 7 2v2c3.47-.458 6.674-.891 10-2v3h2l1-2 1 4 3.41-.035c9.917-.07 19.705.219 29.59 1.035v1c-16.402.441-32.138.736-48-4l-3.703-1.098C107.319 262.61 93.988 256.181 83 248z"/><path fill="#1E0D0E" d="m96 29 9 1c-3.11 2.789-6.31 4.73-10 6.625-5.928 3.141-11.02 7.043-16.25 11.203C76 50 76 50 73 52v-4c2.5-2.25 2.5-2.25 5-4l-2-2 2-3a75 75 0 0 0 1-5l6-2 4 4h4v-2l2-1z"/><path fill="#FDF7EA" d="M100 66c4.819.467 7.84 2.812 11.5 5.75l1.684 1.305c3.524 2.77 6.705 5.718 9.816 8.945l-2.25-1.062c-2.882-.983-3.962-.97-6.75.062l-1 4a558 558 0 0 1-7.062-6.687l-2.05-1.897c-1.793-1.74-3.437-3.38-4.888-5.416.066-2.957.066-2.957 1-5"/><path fill="#EC7C1F" d="M76 241c4.39.51 8.581 1.358 12.875 2.406 7.1 1.656 14.223 2.768 21.438 3.781l3.724.538q4.48.645 8.963 1.275v1l-13 1v-2H98l1 3c-4.016 0-7.386-.193-11-2v-2l-1.625-.312c-4.56-1.32-7.714-2.696-10.375-6.688"/><path fill="#101526" d="m232 253 1 3-2 1v3c-.867 3.467-1.648 4.743-4.562 6.875-4.444 1.454-7.907.96-12.438.125-1-3-1-3 0-6l5-1 1-3 2.75-.312c3.536-.749 5.877-3.688 9.25-3.688"/><path fill="#70603E" d="m24 175 1 3 7 1v1l-1.896.26q-4.24.584-8.479 1.178l-2.984.408-2.852.4-2.634.365c-2.195.292-2.195.292-4.155 1.389 6.013 5.842 12.218 10.141 19.473 14.238L31 200v3c-9.805-3.644-19.019-10.229-26-18-.773-2.27-.773-2.27-1-4q3.874-.756 7.75-1.5l2.21-.434C17.394 178.411 20.493 178 24 178z"/><path fill="#E3BC1E" d="m61 206 1.977.656c4.798 1.529 8.922 2.747 14.023 2.344v4l3 1c-.875 4.875-.875 4.875-2 6-7.25-.35-13.291-2.304-20-5l1-3 10 3 1-3-9-3z"/><path fill="#080F20" d="m78 33 2 1c-.547 3.375-1.055 5.082-3 8l2 2v2l-5 2-2-2-3-1-1-1-3 8h-3v3l2 1-1.75-.562c-2.476-.482-3.852-.077-6.25.562l-2-1c7.645-7.844 15.183-15.458 24-22"/><path fill="#1B1C12" d="M194 216c8.193-.473 8.193-.473 11.563 1.5L207 219l-1 5h-2l3 3-1 3c-4.96 1.323-9.911 1.089-15 1v-3l5-2c-2.224-1.298-2.224-1.298-6-1v-3c5.626-1.62 9.545-2.728 15 0l-1-3-10-2z"/><path fill="#D77628" d="M40 100c1.24 3.718.57 5.439-.437 9.188l-.872 3.292L38 115l2 1h-3c-.074 3.343-.065 5.804 1 9h-2l-2 9h2l-.96 1.61c-1.277 2.935-1.457 5.452-1.665 8.64l-.227 3.266L33 150l2.406-.078C38 150 38 150 39.5 151.25L41 153c2.742 2.361 5.45 4.292 8.625 6 3.071 1.82 4.558 3.007 6.375 6-4.686-1.577-8.342-4.138-12.312-7l-1.956-1.367c-1.617-1.157-3.18-2.39-4.732-3.633v-2h-3l-2 4c-.79-19.365.857-36.88 8-55"/><path fill="#FA7608" d="m109 30 4 1-1 2h4v7l3-4 1 5h-6l-1 5-4-1-1 3-4-1v-7h4l-3-1 1-4 2 1z"/><path fill="#060D1E" d="M125 13v3l2 2v1l10 1c-3.787 1.893-7.37 2.982-11.437 4-5.26 1.322-5.26 1.322-10.348 3.188C113 28 113 28 110 27l1.094-1.39 1.406-1.86 1.406-1.828C115.33 19.789 115.33 19.789 115 16q1.935-.755 3.875-1.5l2.18-.844C123 13 123 13 125 13"/><path fill="#1C1909" d="M217 213a688 688 0 0 1 1.5 5.625l.844 3.164c.647 3.168.772 5.988.656 9.211l-7 1q-.757-3.374-1.5-6.75l-.844-3.797C210 218 210 218 210 214c3-1 3-1 7-1"/><path fill="#FEF7EA" d="M80 86c5.034.206 7.56 3.083 10.813 6.563l1.521 1.576A449 449 0 0 1 96 98l-2 3h-3l1 3h-3a65 65 0 0 1-4.625-5.687l-1.234-1.608C80.799 93.545 79.299 90.957 79 87z"/><path fill="#E77E26" d="m84 81 1.62 2.118c2.648 3.206 5.49 6.082 8.458 8.987l3.516 3.479q2.756 2.719 5.517 5.431 2.676 2.634 5.342 5.278l1.685 1.645c1.326 1.316 2.6 2.685 3.862 4.062v2c-4.556-.857-6.843-3.529-9.937-6.785l-3.461-3.545q-2.71-2.805-5.412-5.617a1017 1017 0 0 0-5.252-5.4l-1.623-1.715C86.63 89.174 86.63 89.174 84 87h-4l-2 4 1-7h5z"/><path fill="#E98938" d="M94 79c6.181 5.104 11.798 10.683 17.438 16.375l2.794 2.809Q117.62 101.589 121 105l-1 3c-4.005-1.604-6.677-4.421-9.64-7.445l-1.598-1.606q-2.511-2.532-5.012-5.074l-3.414-3.441A3461 3461 0 0 1 92 82l2-1z"/><path fill="#260904" d="M105 261c3.94.661 7.407 1.866 11.125 3.313 22.15 8.028 44.593 7.957 67.875 5.687l-1 2c-8.142 2.243-16.617 2.31-25 2.25l-3.29.023c-7.427-.017-14.424-.88-21.71-2.273a2417 2417 0 0 0-5-.812c-8.097-1.646-15.723-5.348-23-9.188z"/><path fill="#060C1B" d="M146 274c1.992.376 3.992.72 6 1v2l-3.375.375c-3.656.272-3.656.272-5.625 2.625-3 .75-3 .75-6 1l-2-2 3-1-2-4c-4.752-.432-7.782 1.015-12 3l2 1h-5l1-3-2-3c7.477-4.785 18.423-1.157 26 2"/><path fill="#1B202F" d="M110 266c5.075-.371 8.493.66 13 3l2 3-4 1 2 3-2 2c-6.596-.37-13.015-3.426-19-6 3.098-.84 5.783-1.09 9-1z"/><path fill="#E4BC1A" d="m264 181 4 1c.391 1.913.762 3.831 1.125 5.75l.633 3.234c.253 3.153-.054 4.416-1.758 7.016l3 1v2h-7l-1-3h-5l5-5 2 1 1-2-4-1v-3l-2-1 2-1a78 78 0 0 0 2-5"/><path fill="#DFB928" d="M92 201c7.908.784 15.657 2.122 23.473 3.54 5.835 1.04 11.628 1.875 17.527 2.46v1q-4.22.04-8.437.063l-2.432.025c-2.044.009-4.088-.036-6.131-.088l-1-1a100 100 0 0 0-5 0v2l5 1v2c-3.411 1.097-6.207.942-9.75.563l-2.984-.31L100 212l2-1c1.134-2.017 1.134-2.017 2-4h2v-2l-2.3-.113-3.013-.2-2.988-.175c-3.023-.574-3.698-1.306-5.699-3.512"/><path fill="#1E1A09" d="m60 207 2.188 1.375c2.56 1.48 5.045 2.597 7.812 3.625l-1 4-10-3-1 2 2 .313c3.838.88 7.331 2.257 11 3.687l-1 4c-13.384-2.59-13.384-2.59-19-6-.906-1.945-.906-1.945-1-4l2-3v6h5l.375-2.437L58 211l2-1z"/><path fill="#5A3A05" d="M265 177c4.705 2.955 6.287 6.342 8 11.438 1.795 5.306 3.86 8.7 8 12.562l1 3c-4.307-1.755-7.75-4.617-9.934-8.781a118 118 0 0 1-2.253-5.906c-1.704-5.062-1.704-5.062-4.813-9.313-4.54-.556-7.537.098-11.562 2.063-3.866 1.886-6.203 2.24-10.438.937l1-4h3l-2 3 2.598-1.094C259.68 176.002 259.68 176.002 265 177"/><path fill="#FA7B10" d="m55 77 3 1 2.063.5C62 79 62 79 64 80c-.687 3.375-.687 3.375-2 7-2.91 1.887-4.383 2.082-7.812 1.625L52 88l-1 2v-2h-3v-5l3-1 1-3 4 1z"/><path fill="#171A2C" d="m32 90 2 2 4-2 1 2-2 3-1 3.063C35 101 35 101 33 103c-.4 2.323-.74 4.657-1 7l-4-1v2h-2l-1 2c.576-5.55 2.021-10.26 4.063-15.437l.853-2.217A952 952 0 0 1 32 90"/><path fill="#613002" d="M34 151h3a134 134 0 0 1 3.328 3.422c3.514 3.317 7.673 5.884 11.672 8.578l-1 2q-2.66-1.65-5.312-3.312l-2.989-1.864C40.5 158.337 38.767 156.96 37 155c-.925 2.776-1.272 4.993-1.535 7.887l-.264 2.842-.264 2.958-.275 2.995Q34.327 175.34 34 179h-5l-1-2h4l-.032-1.956c-.041-2.931-.067-5.863-.093-8.794l-.05-3.078-.02-2.969-.032-2.73c.24-2.612.904-4.23 2.227-6.473"/><path fill="#13120F" d="M161 223h2v6l2.813.813c3.039 1.132 4.088 1.886 6.187 4.187l-2.59.148-3.347.227c-1.103.07-2.205.14-3.34.21L160 235l-1 2h-8c1.999-4.734 3.624-6.467 8-9 .805-2.05.805-2.05 1-4z"/><path fill="#DDB826" d="M276 159v3l-7 2v2h-3l-1 3h-3l2 7-1.793.184c-4.117.436-8.162.903-12.207 1.816v-2l-2-1 1.956-1.146q4.398-2.58 8.794-5.167l3.078-1.802 2.969-1.748c.9-.53 1.801-1.058 2.73-1.603 2.482-1.482 2.482-1.482 4.673-3.23C274 159 274 159 276 159"/><path fill="#F57C16" d="M210 30c7.375 2.48 19.355 6.71 23 14l-6-1v4h-2v2h-3l1-4-1.937-1.125c-2.702-2.456-2.747-4.32-3.063-7.875h-5l-1-4h-2z"/><path fill="#6C5A42" d="M31 203h2v2l2 1-2 2.125c-2.183 2.719-2.183 2.719-2.562 5.875.766 4.089 2.435 5.29 5.562 8 2.42 1.428 4.925 2.568 7.5 3.688l1.973.892A227 227 0 0 0 56 231c-1.516 1.184-1.516 1.184-4 2a56.4 56.4 0 0 1-7.75-2.937l-2.162-.983c-6.411-3.028-12.555-6.208-15.276-13.08.24-3.828 1.508-6.574 3.188-10z"/><path fill="#28120C" d="m209 29 8 1v2l1.813.438c1.749.45 3.474.99 5.187 1.562v2h3c1.477 1.336 1.477 1.336 3 3 3.769 3.09 7.003 5.546 12 6l1-3h4c-.628 2.929-1.586 5.361-3 8h2v3l3 1-1 3-1.617-1.723C241.004 49.703 235.458 45.247 229 41l-2.246-1.59C221.152 35.486 215.292 32.658 209 30z"/><path fill="#CBAB39" d="m36 154 4 4-3 1-1 12h2l-1 8c-5.475 2.249-10.124 3.402-16 4l-3 1c-2 .04-4 .044-6 0l1.5 1.375C15 187 15 187 15 189l1.938.875C19 191 19 191 20 193c-3.239-1.444-5.62-3.258-8.25-5.625l-2.14-1.914L8 184c3.154-2.103 4.646-2.404 8.324-2.852l3.115-.39 3.249-.383 3.283-.406A1553 1553 0 0 1 34 179l.076-1.864q.176-4.193.361-8.386l.12-2.934.127-2.832.11-2.602c.193-2.232.594-4.232 1.206-6.382"/><path fill="#060C1F" d="m60 54 1 3h3v3l-6 1 1 4h-4l.188 2.75c-.205 3.542-.715 4.777-3.188 7.25h-2V65l5-1v-3l-2-1c.125-1.875.125-1.875 1-4 3.063-1.25 3.063-1.25 6-2"/><path fill="#110D16" d="m218 257 2 1-1 2c-2.562.625-2.562.625-5 1l1 3c-.437 2.188-.437 2.188-1 4l-2.055-.324c-6.218-.801-10.617-.456-16.507 1.62-3.875 1.118-7.43.898-11.438.704 3.313-1.841 6.588-2.746 10.25-3.687 6.51-1.792 12.494-4.234 18.595-7.115 1.694-.786 3.423-1.499 5.155-2.198"/><path fill="#E08336" d="M284 131h1v29h-1l-1-9-4 2c-3.75-.375-3.75-.375-7-1 3.75-2 3.75-2 6-2v-2l1-1h-2l-1-3 1-2c1.938-.562 1.938-.562 4-1l2-1-.062-3.937A59 59 0 0 1 283 132z"/><path fill="#201A05" d="m198 225 2 2-9 1v3c7.582-.528 7.582-.528 15-2l1-2-3-1 1-2 4 2v5c-5.249 3.177-10.015 3.657-16 4l1-2-5-2 1-6c3.04-.977 4.984-1.106 8 0"/><path fill="#C7AC34" d="m179 215 15 1v1l-12 1 .5 3.375c.623 4.892.568 9.698.5 14.625l12-1-1 3c-9.941.783-9.941.783-14.125-2.312C178 233 178 233 177 230l3 1v3c1.313-1.086 1.313-1.086 1.098-3.723l-.036-3.34-.027-3.347L181 221h-2c-1.125-3.75-1.125-3.75 0-6"/><path fill="#191F2E" d="m139 273-3 1 3 4-2 2 6-1-1 3c-5.063.156-9.504-.372-14.437-1.5l-3.747-.844L121 279l3-2 1-2c4.82-2.116 8.842-2.178 14-2"/><path fill="#0E1426" d="m45 75 1 2h2l1-2v5h-2v4l-3.437.438c-3.37.174-3.37.174-4.563 1.562l-2 1v2l-4 1c2.624-8.476 2.624-8.476 5-12 3.688-.875 3.688-.875 7-1z"/><path fill="#060D1B" d="M126 220h3l3 7 10 1 1 3-2.336-.105-3.039-.083-3.023-.105L132 231l-2 3h-5z"/><path fill="#1A1F2E" d="M215 20c4.538 1.35 8.32 3.192 12.375 5.625l3.21 1.914L233 29l-2 2c-2.312-.312-2.312-.312-5-1l-2.812-.562L221 29v2l-4 1c-1.138-4.266-2-7.565-2-12"/><path fill="#C7AD3A" d="M229.563 207.938 233 208c-3.146 2.097-5.015 2.52-8.687 3.125l-3.012.508L219 212l2 4 6-1q.755 2.186 1.5 4.375l.844 2.46C230 224 230 224 230 226h-2l-1-8h-7l1 3c.068 1.728.085 3.458.063 5.188l-.028 2.73L221 231h-1l-3-18-7 1v-2l3.438-.437c3.37-.175 3.37-.175 4.562-1.563l7-1c1-1 1-1 4.563-1.062"/><path fill="#070C1C" d="M183 220h6c.575 3.735 1 7.213 1 11l6 2c-3.089 2.06-3.71 2.239-7.187 2.125L185 235v-10h-2z"/><path fill="#E3BD18" d="m274 166 1 3-5 1 2 1-1 5c-3.01.934-3.867 1.044-7 0-2-3-2-3-2-7l3-1 1-2c2.934-1.113 5.084-1.206 8 0"/><path fill="#202635" d="M251 248c-6.637 5.784-12.998 11.16-21 15l-1-3 2-2v-3c.375-2.125.375-2.125 1-4l2-1 1 5 7-1 .75-2.375c1.25-2.625 1.25-2.625 3.188-4C248 247 248 247 251 248"/><path fill="#E4BC1C" d="m66.688 223.938 2.449.027L71 224v2h3l-1 3-2.875-.187L67 229l-2 3c-3.5.375-3.5.375-7 0l-2-3 2-1 1-3c2.882-.96 4.699-1.106 7.688-1.062"/><path fill="#7F4B0D" d="M144 206h44v1c-14.526 2.81-29.277 2.193-44 2z"/><path fill="#CDB03A" d="M209 216c2.375 2.375 2.517 3.624 3.125 6.875l.508 2.617C213 228 213 228 213 232l5-1 1 2q-2.156.253-4.312.5l-2.426.281C210 234 210 234 207 234l-1 1q-3.5.061-7 0c2.23-1.156 4.273-2.083 6.688-2.812L208 231c.894-2.548.894-2.548 1-5l-4-2 2-5h2z"/><path fill="#6B5735" d="m287 208 2 1c1.5 6.927 1.5 6.927-.2 10.57-4.79 6.464-13.276 9.358-20.8 11.43v-3l3.43-1.68 4.445-2.195 2.262-1.105 2.168-1.075 2-.984c1.875-.964 1.875-.964 3.695-2.961.205-1.915.205-1.915.063-4-.161-3.803-.161-3.803.937-6"/><path fill="#070918" d="m278 102 3 1 .367 2.414.508 3.211.492 3.164c.56 3.206.56 3.206 1.633 6.18 1.09 3.301 1.634 6.467 2.125 9.906l.508 3.492L287 134h3v-2l4 1v-5h1v11c-6.836-1.855-6.836-1.855-9-3-1.824-3.36-2.364-6.678-2.875-10.437-.931-6.052-2.533-11.78-4.32-17.63C278 105 278 105 278 102"/><path fill="#220B04" d="M140 18q8.518-.037 17.035-.055 2.9-.008 5.8-.02c2.772-.013 5.545-.018 8.317-.023l2.636-.015c2.071 0 4.142.05 6.212.113l1 1c2.574.532 5.159.964 7.75 1.402L191 21l1 2q-3.812-.466-7.625-.937l-2.16-.264-2.13-.264-1.935-.238a102 102 0 0 1-4.945-.824c-3.569-.527-6.965-.586-10.572-.57-.68 0-1.36.002-2.06.004-2.15.005-4.299.018-6.448.03q-2.199.009-4.398.014-5.363.017-10.727.049z"/><path fill="#EB7311" d="M239 176h2l-.687 3.188c-.353 4.304.21 5.418 2.687 8.812a167 167 0 0 1 2 4q-2.904 1.007-5.812 2l-3.27 1.125C233 196 233 196 230 196v-2c3-2 3-2 6-3 .593-4.376 1.138-8.575 1-13h2z"/><path fill="#F9780C" d="m100.723 248.902 3.34.036 3.347.027L110 249l-2 1-1 2-2 1 3 4-1 2h-3l-2-2a126 126 0 0 0-6-2v-2l-3-1 1.938-.937c4.074-2.1 4.074-2.1 5.785-2.16"/><path fill="#0B0F0E" d="M77 207c5.461.88 5.461.88 8 2 1.5 3.125 1.5 3.125 2 6l5-2 2 2-1 2h-2l-1.375 1.563L88 220c-2.187-.312-2.187-.312-4-1v-4h-3z"/><path fill="#170E11" d="m262 72 3 1v2h2c1.46 2.647 2 3.894 2 7h2l2 5 1.188-1.562L276 84c2.688.313 2.688.313 5 1v2l2 1-3 1-2 3-1-1-3 3-1.61-3.035-2.14-4.028-1.055-1.99A427 427 0 0 0 262 72"/><path fill="#F58320" d="M87 42v5h-3l-1 4v-3l-2 1c-.652 2.025-.652 2.025-1 4l4 1-1.812.313c-2.47.776-3.51 1.758-5.188 3.687l-4-6q2.153-1.94 4.313-3.875l2.425-2.18C84.325 42 84.325 42 87 42"/><path fill="#1D2332" d="M202 15c4.389.665 7.981 2.188 12 4l-1 3h-2v-3h-2v5c-2.633 1.316-3.802.748-6.625.063l-2.477-.59L198 23v-3h3z"/><path fill="#D97C34" d="m82 246 6 2v2c2.652 1.075 5.284 2.095 8 3v2l3.25.375c3.129.521 5.085 1.026 7.75 2.625l2-3c1 3 1 3 0 6 4.102 1.015 4.102 1.015 8 0l1 2 3 2c-6.537-.455-11.464-1.656-17.312-4.562l-2.206-1.067C84.467 250.934 84.467 250.934 82 246"/><path fill="#F48222" d="m47 85 1 3 6 1v2l3 1-3 1-1 2-3-1v2l-4-1-1 2h-3q.68-2.159 1.375-4.312l.773-2.426C45 88 45 88 47 85"/><path fill="#FD8720" d="M148 22v3l5 2-2 3c-.633 2.113-.633 2.113-1 4l-1-5h-5l-1 4-3-2 1-2h-2v-2c2.647-1.46 3.894-2 7-2v-2l-9 3v-2h3v-2c2.862-1.43 4.934-.6 8 0"/><path fill="#D3B330" d="M237 206h5q1.005 2.435 2 4.875l1.125 2.742C246 216 246 216 246 218c-2.812.625-2.812.625-6 1l-3-2-1 3a177 177 0 0 1-1-7c1-1 1-1 3.563-1.062L241 212c-.276-1.94-.276-1.94-1-4z"/><path fill="#070D1C" d="M221 29c4.657-.133 8.586.529 13 2l-4 8-3-1v-2h-3v-2l-1.875-.375C220 33 220 33 218 31h3z"/><path fill="#FEF3DF" d="M176 102h1c.088 3.229.14 6.458.188 9.688l.076 2.763c.055 5.087-.056 8.36-3.264 12.549-.696 2.191-.696 2.191-1 4l-1.79.277c-2.733.894-3.723 2.122-5.585 4.286-3.197 3.382-3.197 3.382-7.062 3.875L156 139c1-2 1-2 3.305-2.879 3.029-1.26 4.573-2.693 6.82-5.059l2.008-2.09L170 127l1.617-1.504c2.74-2.963 3.627-5.847 3.797-9.824l.117-2.422.094-2.5.117-2.547c.094-2.067.177-4.135.258-6.203"/><path fill="#D8782D" d="m216 255 2 3c-12.997 6.233-28.274 13.513-43 13 2.985-2.542 5.201-3.477 9.063-4.062l2.898-.465L190 266q3.096-.554 6.188-1.125L201 264v-2l1.934-.367 2.504-.508 2.496-.492L210 260l1-2h3l1-2z"/><path fill="#070C1E" d="M86.313 32.875 88 34l-1 2 2 2c-4.263 4.13-7.288 4.613-13 5l.938-1.687c1.196-2.292 1.196-2.292 1.374-4.938C79 34 79 34 81.313 32.563 84 32 84 32 86.313 32.875"/><path fill="#6E5B3A" d="m292 176 1 2c2.283.396 2.283.396 5 .5 5.182.373 9.96 1.26 15 2.5l-1 4-5 1 1-2-1.836-.367L288 180v-2h4z"/><path fill="#DA7928" d="M70 54h2v6l-2.875.75c-3.184.912-3.184.912-4.312 3.188L64 66c-1.628 1.832-2.803 2.901-5 4l-1 2.5C57 75 57 75 55 76l-1 3c-1.562 1.688-1.562 1.688-3 3l-2-1c4.921-7.423 9.932-14.372 16.055-20.879 1.981-2.075 1.981-2.075 3.578-4.398z"/><path fill="#2B2C38" d="m58 235 12 2-3 3c-1.184 3.058-.854 4.9 0 8l-3.375-2.875-1.898-1.617A76 76 0 0 1 58 240z"/><path fill="#F57F1A" d="m272 152 6 1c-3.7 3.968-7.535 6.88-12.125 9.75l-1.879 1.207c-2.643 1.677-5.015 3.05-7.996 4.043v-3l3.438-1.375c3.61-1.196 3.61-1.196 4.562-3.625h2l2-6 3 1z"/><path fill="#FC7F12" d="m46 139 2 1c-.255 1.316-.53 2.628-.812 3.938l-.458 2.214L46 148l-3 1-2 3h-3v-2h-3l1-2 4 1v-4h-2l-1 3-1-3c4.308-3.938 4.308-3.938 7.813-4.25L46 141z"/><path fill="#F58527" d="M149 263c2 1 2 1 4 4l-1 1h6v2c.892-.095 1.784-.19 2.703-.29l3.547-.335 3.516-.352c3.273-.023 4.468.437 7.234 1.977-11.718.109-23.322.1-35-1l1-4h3l1 2 3-1v2h2l-2-3-1-2z"/><path fill="#C5A53B" d="M58 169q3.944 1.892 7.875 3.813l2.262 1.08 2.168 1.064 2 .968C74 177 74 177 76 180c-.25 2.625-.25 2.625-1 5l-2 1v-6l-2-1 1 3c-3.344-.557-6.033-1.352-9-3v-2l4 1c-2.142-2.301-4.03-4.017-6.75-5.625L58 171z"/><path fill="#060C1E" d="m186 12 5 1v2l6-1-2 6c-4.018.841-7.018 1.054-11 0v-5l2-1z"/><path fill="#FA7607" d="M111 250h8l-1 5 6 2-1 7h-2l-2-5h-3v-2h-5v-4h2l1-1h-3z"/><path fill="#4E360E" d="m268 229-1 3h-2l-2 4-1-3c-.797.36-1.593.722-2.414 1.094l-3.211 1.406-3.164 1.406c-3.292 1.122-5.762 1.301-9.211 1.094v2l-7 1v-2q6.139-2.142 12.28-4.272 2.09-.727 4.179-1.456 3-1.045 6.002-2.084c1.204-.42 2.409-.838 3.65-1.27C266 229 266 229 268 229"/><path fill="#FD8319" d="M35 130c3.199-.089 5.927.09 9 1l-.562 1.875c-.675 2.167-.675 2.167.562 4.125h-2v2l-4-1-1 5h-2c0-3.273.3-5.847 1-9h-2z"/><path fill="#E3BA1D" d="m115 220 8 1v4h-3l-.437 2.313C119 230 119 230 118 233h-2v-3h-2z"/><path fill="#1C1A0A" d="M161 219h8v1l-5 1 2 1c.633 1.848.633 1.848 1.125 4.063l.508 2.222L168 230h-5c-.934-3.01-1.044-3.867 0-7l-3 2v4l-5 1z"/><path fill="#6A3906" d="m127.75 246.75 3.152.227 3.02.257 2.737.226c2.665.615 3.638 1.448 5.341 3.54-11.124-.45-22.007-1.153-33-3v-1c6.36-1.258 12.319-.816 18.75-.25"/><path fill="#C4AC36" d="M91 210c6.75-.125 6.75-.125 9 1 2.82.274 5.64.446 8.469.621C111 212 111 212 113 214c-2.822.94-4.192 1.036-7.062.875L102 215l-2 3c-3.625.688-3.625.688-7 1l-1 4-1-4 9-5c-2.957-1.478-5.742-1.06-9-1z"/><path fill="#262B39" d="m68 41 2 1-1.375 1.625C66.783 46.317 65.92 48.885 65 52h-3v3l2 1-1.75-.562c-2.476-.482-3.852-.077-6.25.562l-2-1z"/><path fill="#E47F2E" d="M171 20c7.533.165 14.556 1.462 21.813 3.375l2.423.634A89 89 0 0 1 209 29l-1.875.438c-2.158.494-2.158.494-4.125 1.562l-1-2c-2.527-.656-2.527-.656-5-1v-2q-2.656-.252-5.312-.5l-2.989-.281c-2.746-.26-2.746-.26-5.699-.219l-1-2c-2.586-.468-2.586-.468-5.562-.625l-3.067-.227L171 22z"/><path fill="#FA7F14" d="m139 258 1 2 3 1 1-1c2-.04 4-.043 6 0v-2h2l-1 4-3.312.813c-4.859 1.564-5.926 3.044-8.688 7.187l-2-2h-2c.565-3.958 1.809-6.666 4-10"/><path fill="#FB831C" d="m126 257 7 2-1 2h-2l2 2v4c-3.01.934-3.867 1.044-7 0v-2h-2l1-4 2 1-.562-1.937L125 258z"/><path fill="#563B12" d="M53 232c5.657-.44 10.13 1.143 15.375 3l2.52.867c2.038.703 4.072 1.417 6.105 2.133l-1 4-6-3v-2l-2.117-.184-2.758-.254c-.905-.08-1.81-.162-2.742-.246C60 236 60 236 58 235l-1 4c-4-4.75-4-4.75-4-7"/><path fill="#212634" d="m91 261 3 1v2l10-1-2 1v7c-4.972-1.492-9.418-3.605-14-6v-2h3z"/><path fill="#CDB136" d="m147 220 4 1v6l3 1-1.937 1.25c-2.273 1.928-2.665 2.864-3.063 5.75h2v2h7v1l-2.937.375L152 239l-1 2c-2.217-1.109-4.036-2.494-6-4h3l-2-7 2-1c.27-4.65.27-4.65-1-9"/><path fill="#DD7C2C" d="M166 19c-1.312 1.5-1.312 1.5-3 3h-3v-2l-3.375 1c-7.707 1.762-15.772 1.152-23.625 1 9.4-5.174 22.582-3.096 33-3"/><path fill="#230F0B" d="m121 19 16 1c-3.787 1.893-7.37 2.982-11.437 4-5.26 1.322-5.26 1.322-10.348 3.188C113 28 113 28 110 27l2.152-.988 2.785-1.325 2.778-1.3C120.31 22.149 120.31 22.149 121 19"/><path fill="#262B38" d="m178 274 4 1v5l3-2c3.688.375 3.688.375 7 1v1c-7.043 1.593-12.857 2.171-20 1l4-2v-2h2z"/><path fill="#D97C30" d="M40 100c1.24 3.718.57 5.439-.437 9.188l-.872 3.292L38 115l2 1h-3c-.074 3.343-.065 5.804 1 9h-2l-2 8h-1c-.19-5.829.399-10.855 1.813-16.5l.501-2.145c1.2-4.952 2.822-9.613 4.686-14.355"/><path fill="#321104" d="M105 261c3.94.661 7.407 1.866 11.125 3.313 8.755 3.203 17.736 4.943 26.875 6.687v1c-14.094.54-25.608-3.46-38-10z"/><path fill="#1C0F0D" d="M236 245h2c-.875 4.75-.875 4.75-2 7h-4a318 318 0 0 0-6 5c-2.25.938-2.25.938-4 1l-2-2 3.246-2.152 4.191-2.786 2.143-1.42 2.041-1.357 1.889-1.254c1.47-.952 1.47-.952 2.49-2.031"/><path fill="#F67408" d="m275 121 2 2c-.375 2.125-.375 2.125-1 4h-2l-1 4c3.278-.752 3.278-.752 5-4v2h2c-1 2-1 2-2 3-1.666.04-3.334.043-5 0v5l2 1h-5v-2h2c-.087-1.626-.195-3.25-.312-4.875l-.176-2.742c-.3-2.745-.3-2.745-3.512-4.383l5-2 2 4z"/><path fill="#2F3543" d="m29 97 3 1v12l-4-1v2h-2l-1 2c.601-5.65 2.075-10.662 4-16"/><path fill="#211111" d="M249 57c1.46.06 2.918.149 4.375.25l2.46.14C258 58 258 58 259.255 59.86c.936 2.685 1.336 5.328 1.746 8.14.317 1.337.643 2.673 1 4a179 179 0 0 1-13-14z"/><path fill="#ED8127" d="M180 178c5.963 4.82 10.967 10.225 16 16-3.404 0-5.805-.869-9-2l-3-1c1-2 1-2 3-3v-2l-1.812-.187c-3.091-1.149-3.776-2.918-5.188-5.813z"/><path fill="#D5B333" d="M283 179c8.72 1.106 17.37 2.314 26 4l-5 5v-4c-6.651-.895-13.31-1.476-20-2z"/><path fill="#D5B437" d="M281 205c3 1 3 1 4.688 3.125 1.677 3.674 1.954 5.877 1.312 9.875-3.522 3.69-7.248 6.056-12 8l-2-1 3-1v-2h3v-2h4c.197-1.415.382-2.832.563-4.25l.316-2.39c.121-2.365-.183-4.111-.879-6.36h-2z"/><path fill="#FD8217" d="m40 107 1 2h4q2.386.444 4.75 1l2.422.563L54 111v1h-6l-1 4h-5l-1-5v4h-3c-.2-3.716-.152-4.772 2-8"/><path fill="#D9B72B" d="M156 222h3c-1.764 4.972-4.394 9.434-7 14l-3-1c.547-3.375 1.055-5.082 3-8l1-3h3z"/><path fill="#432C10" d="M34 154h1q.04 4.563.063 9.125l.025 2.594c.017 4.548-.156 8.805-1.088 13.281h-5l-1-2h4v-17h2z"/><path fill="#E57B26" d="M260 71c5.45 4.624 8.765 10.689 12 17v2h-6v-3h2l-3-6-2 1-1.465-5.957c-.445-1.7-.98-3.376-1.535-5.043"/><path fill="#FC7E11" d="M115 33c1 3 1 3 1 7l3-4 1 5h-6l-1 5-4-2v-2l1.938-.875c2.214-.953 2.214-.953 3.062-3.125l-5 1v-3l2.438-.937c2.453-.826 2.453-.826 3.562-2.063"/><path fill="#EB8733" d="M210 30c6.382 2.298 11.65 4.812 17 9l-2 1-3-1v2l-3 1-1-6h-5l-1-4h-2z"/><path fill="#060D1D" d="M214 217h3l2 13h-5l-1-6 3-1v-2l-3 1z"/><path fill="#FA790D" d="m34 137 1 2 2 1-2 3 3-1 2 2-2 1h2v4l-7 1q-.04-2.97-.062-5.937l-.036-3.34C33 138 33 138 34 137"/><path fill="#DC782A" d="M113 28v2l-7 2v2h-3v2c-3.98 1.17-7.916 2.257-12 3 2.063-2.23 3.977-3.68 6.688-5.043l2.117-1.064 2.195-1.08 2.195-1.116 2.118-1.052 1.925-.958C110 28 110 28 113 28"/><path fill="#2E1106" d="m207 262 2 1-3 1v2c-7.534 2.608-13.998 4.542-22 4 3.5-1.955 7.08-2.946 10.938-4 3.388-.928 6.64-1.822 9.878-3.187z"/><path fill="#231E07" d="M102 214c8.571-.286 8.571-.286 12 2l-5 1v8h-2l1-6-7-1z"/><path fill="#262006" d="M62 202q2.126.429 4.25.875l2.39.492c2.328.625 4.25 1.481 6.36 2.633l-1 4q-2.19-.425-4.375-.875l-2.46-.492C65 208 65 208 63 206l3-1z"/><path fill="#DAB62D" d="M274 193h6v2l4 1-2 3 4 2c-2.187.75-2.187.75-5 1-3.942-2.384-5.66-4.615-7-9"/><path fill="#746145" d="M15 191c3.893 1.43 7.293 3.247 10.813 5.438l2.957 1.808L31 200v3c-3.893-1.43-7.293-3.247-10.812-5.437l-2.958-1.81L15 194z"/><path fill="#EB822B" d="M158 154c3.806 3.22 7.54 6.402 11 10l-1 2-7-7-2.312 1C156 161 156 161 153 161l-1 3-2-1z"/><path fill="#F9790D" d="m46 146 4 2c-1 3-1 3-2.625 4.438L46 154c.373 2.083.373 2.083 1 4a396 396 0 0 1-4-2.375l-2.25-1.336L39 153v-2h2c1.637-1.96 1.637-1.96 3-4l2 1z"/><path fill="#EC7C1F" d="m243 241-12 9-2-4c3.717-4.46 8.264-6.912 14-5"/><path fill="#FB8217" d="m38 117 4 1c.125 5.75.125 5.75-1 8h2l1-2v3h-2v2h-3v-2l-4 1v-5l1 2h2c.8-3.287 1.097-4.71 0-8"/><path fill="#723F08" d="M194 247c-2 3-2 3-4.066 3.512l-2.496.175-2.684.196c-3.926.167-7.825.18-11.754.117l3-1v-2q3.093-.254 6.188-.5l3.48-.281c2.793-.184 5.535-.261 8.332-.219"/><path fill="#FB841C" d="m58 70 5 1-1 2-2-1v3h2l-1 4h-4l-1 1h-2l1-5h2z"/><path fill="#ED8126" d="M233 44c3.239 1.444 5.62 3.258 8.25 5.625l2.14 1.914L245 53l-4 1-1-2a530 530 0 0 0-5-1l-2-2h2l-1-2-2 1z"/><path fill="#2B2712" d="M125 217q3.813.173 7.625.375c.713.03 1.426.062 2.16.094 4.387.241 8.074.924 12.215 2.531l-1.937.438c-2.038.372-2.038.372-3.063 1.562-2.69-.176-5.329-.618-8-1v-2l-9-1z"/><path fill="#292209" d="M241 208v4l-2.375.375c-2.766.416-2.766.416-4.625 2.625v-5l-8 1c4.57-2.56 9.859-5.056 15-3"/><path fill="#4D3717" d="M283 154h1c.905 5.365 1.123 10.503 1.063 15.938l-.014 2.36q-.02 2.852-.049 5.702h3v2l-5-1c-1.123-8.466-.805-16.512 0-25"/><path fill="#FD8218" d="M266 100h2v5h3v5l-1.937.313L267 111l-1 3-2-1v-5l2-1z"/><path fill="#FD7D0F" d="m81 56 1.875 2c1.881 2.228 1.881 2.228 4.125 2l1 3h2l-1 3-4-1-1 2-4-2v-3h2z"/><path fill="#FE871F" d="M110 31c-1 3-1 3-2 5h-2l-1 3 4 1-1.937.375L105 41l-1 2h-3l-1-3 1-1a208 208 0 0 0 2-5h3v-2c2-1 2-1 4-1"/><path fill="#C9AC35" d="m266 217-1 4-2.062-.187c-3.758.24-6.49 1.7-9.938 3.187-2.322.405-4.655.76-7 1v-6l2 4 3.43-1.312 4.445-1.688 2.262-.867C263.773 217 263.773 217 266 217"/><path fill="#070D1D" d="M57 208c.981 3.053.981 4.947 0 8l3 1c-5.75.125-5.75.125-8-1v-6z"/><path fill="#D6B33C" d="m282 154 1 25h-2l-1-20-4-1c3.75-4 3.75-4 6-4"/><path fill="#EA822C" d="M117 89q1.659 1.404 3.313 2.813l1.863 1.582L124 95l1.73 1.512C127 98 127 98 127 101l-5-2v-2l-1.937-.937C118 95 118 95 117 94a100 100 0 0 1 0-5"/><path fill="#C1A93D" d="m61 206 7.52 2.246c1.835.558 3.66 1.147 5.48 1.754v2h-2v3h-2v-3l-9-3z"/><path fill="#5E4621" d="M228 197v3a702 702 0 0 1-6.687 1.563l-3.762.878c-3.312.521-5.37.478-8.551-.441 3.418-1.936 6.804-2.771 10.625-3.625 1.147-.26 2.295-.52 3.477-.79C226 197 226 197 228 197"/><path fill="#63543D" d="M4 181c3 0 3 0 4.754 1.68l1.809 2.195 1.816 2.18L14 189l2 2-2 2-3.875-3.375-2.18-1.898A91 91 0 0 1 4 184z"/><path fill="#EE7F20" d="m140 174 1 4c-1.512 2.035-1.512 2.035-3.687 4.063l-2.137 2.035A86 86 0 0 1 129 189l-2-1z"/><path fill="#040918" d="M294 152h1v11h-2l-1 2-4-2a56.5 56.5 0 0 1 4-7h2z"/><path fill="#FD7F13" d="M49 114h2l1 2c2.527.656 2.527.656 5 1v2l-2.437.375L52 120l-1 2-3-1h-3l-2-2 4-1v-2h2zm0 3 1 2 1-2z"/><path fill="#280E07" d="m54 71 2 1-1.355 2.055C50.656 80.195 47.118 86.376 44 93h-1v-6h2l-1-3h3v-4h2l.25-1.687c.976-3.01 2.702-4.935 4.75-7.313"/><path fill="#D0AF2F" d="m122 241 1 4 9 1-1 2-21-2c2.944-1.963 3.802-2.255 7.125-2.5L121 243z"/><path fill="#1A160D" d="m204 224 5 2c.188 2.375.188 2.375 0 5-3.204 2.136-4.02 2.231-7.687 2.125l-2.45-.055L197 233c2.81-3.156 4.855-3.37 9-4l1-2-3-1z"/><path fill="#333945" d="m46 65 1 2h2c-.506 2.169-1 4-2 6l-1.937.375c-2.262.434-2.262.434-3.313 2.688L41 78h-2c1.642-4.776 4.265-8.794 7-13"/><path fill="#FD861D" d="M128 25c1.333 2.667.671 4.167 0 7l3 1c-1.666.043-3.334.04-5 0l-1-1-2 1v2l2 1-4-1 1-7 4 1v-3z"/><path fill="#2B0F06" d="m278 102 3 1 .367 2.414c.975 6.454.975 6.454 2.758 12.711 1.298 4.266 1.032 8.449.875 12.875h-1l-.297-2.133c-1.087-7.181-2.777-13.988-4.898-20.933C278 105 278 105 278 102"/><path fill="#EA8029" d="M211.598 67.902q2.232.01 4.464.035l2.3.014q2.818.02 5.638.049l1 2-2.93-.14c-7.522-.21-13.29-.075-20.215 3.265C200 74 200 74 198 74l-1-3 2.152-.402 2.786-.535 2.777-.528c3.46-.81 2.809-1.522 6.883-1.633"/><path fill="#272104" d="M169 220c3.322 3.09 5.76 6.402 8.25 10.188l2.14 3.23C181 236 181 236 181 237h-8v-1h5a952 952 0 0 0-2.812-4.312l-1.583-2.426c-1.484-2.263-1.484-2.263-3.304-3.805C169 224 169 224 169 220"/><path fill="#201C0A" d="m268 212 1 4c-2.906 1.257-4.796 2-8 2v-2h-5c3.86-2.573 7.332-4 12-4"/><path fill="#050E20" d="M192 217c4.921-.167 8.503-.248 13 2v3l-3-1a166 166 0 0 0-5.687-.562l-3.012-.254L191 220z"/><path fill="#BFAB45" d="M268 211c-3.015 2.01-5.215 2.726-8.687 3.625-.994.26-1.988.52-3.012.79-.76.192-1.519.386-2.301.585l-1-3c1.553-.73 3.118-1.433 4.688-2.125l2.636-1.195c3.28-.834 4.72-.203 7.676 1.32"/><path fill="#080D1E" d="M289 167c2.686 2.686 3.06 5.376 4 9l-2 2-1-3-3 1c-.687-2.25-.687-2.25-1-5 1.438-2.312 1.438-2.312 3-4"/><path fill="#F8760B" d="M70.25 59.688 73 60l-2 8h-3l-1-4-4 1c3.2-4.923 3.2-4.923 7.25-5.312"/><path fill="#DF7C2B" d="m133 23-8 2v2l-2.312-.187c-2.733-.072-2.733-.072-4.5 1.687L117 30v-2l-4-1q2.591-.974 5.188-1.937l2.917-1.09c4.615-1.551 7.087-2.175 11.895-.973"/><path fill="#B9A033" d="M132 223h9v4h-9z"/><path fill="#2C2406" d="m262 199 1 5-7 2v-2h3v-2l-1.625 1c-2.914 1.227-5.244 1.142-8.375 1 2.457-1.638 4.346-2.62 7.063-3.625.692-.26 1.384-.52 2.097-.79C260 199 260 199 262 199"/><path fill="#FCDDBC" d="M176 102h1c.088 3.229.14 6.458.188 9.688l.076 2.763c.055 5.087-.056 8.36-3.264 12.549-.696 2.191-.696 2.191-1 4l-3-2 1.059-1.336c5.324-7.873 4.832-16.49 4.941-25.664"/><path fill="#FE8114" d="M195.25 30.313 197 31l1 4-2 1-3-1-2 4v-2l-4-1h2v-3c2.169-2.169 3.14-3.12 6.25-2.687"/><path fill="#FD7E0F" d="M162 252c2.125.375 2.125.375 4 1l-1 3c-3.062 1.188-3.062 1.188-6 2 .573-2.867.861-3.861 3-6m-7 4 4 2v3c-2.437-.375-2.437-.375-5-1l-1-2h2z"/><path fill="#C7AE43" d="M160 234h12l1 2c2.322.407 4.657.744 7 1v1c-6.152.098-6.152.098-8 0l-1-1c-2.02-.072-4.042-.084-6.062-.062l-3.348.027L159 237z"/><path fill="#D6B42E" d="M237 206h5q1.005 2.435 2 4.875l1.125 2.742C246 216 246 216 246 218l-6 1-1-2h4v-5h-2l-.312-1.875c-.563-2.49-.563-2.49-3.688-4.125"/><path fill="#DAB734" d="m179 215 15 1v1l-13 1v3h-2c-1.125-3.75-1.125-3.75 0-6"/><path fill="#ED7F26" d="m126 189 1 2a952 952 0 0 1-2.812 4.313l-1.583 2.425c-1.432 2.018-2.687 3.704-4.605 5.262-3.187.188-3.187.188-6 0l2.063-1.562c4.483-3.72 8.696-7.577 11.937-12.438"/><path fill="#DCB62D" d="M304 188c-3.382 3.68-6.425 5.979-11 8 .322-2.975.621-4.593 2.688-6.812 2.912-1.496 5.082-1.408 8.312-1.188"/><path fill="#D3AF38" d="m243 177 3 1-3 5 5 2-1 3h5l-2 2h-4c-2.692-3.14-3.922-5.168-4.312-9.312C242 178 242 178 243 177"/><path fill="#D5B233" d="M276 159v3l-7 2v2h-3l-1 3-7 1a109 109 0 0 1 10.688-7.75l2.886-1.86C274 159 274 159 276 159"/><path fill="#303540" d="M293 163h2l-1 12h-2q-.543-1.935-1.062-3.875l-.598-2.18C290 167 290 167 291 165h2z"/><path fill="#EB812B" d="m172 150 6 1v3c1.664 1.77 1.664 1.77 3.813 3.438 2.848 2.319 5.083 4.543 7.187 7.562-2.812-1.292-4.968-2.682-7.234-4.785l-1.739-1.608-1.777-1.67-1.824-1.681A233 233 0 0 1 172 151z"/><path fill="#363A45" d="m222 23 11 6-2 2c-3.442-.353-5.069-1.046-8-3z"/><path fill="#181408" d="M114 216c6.75-.125 6.75-.125 9 1v4l-8-1z"/><path fill="#EC8C41" d="M94 79q1.724 1.432 3.438 2.875l1.933 1.617C101 85 101 85 102 87h-2l-1 2-7-7 2-1z"/><path fill="#F0750F" d="m166 19 5 1v2h2l-1 4 4 1-2 5c-1.937-.75-1.937-.75-4-2-1.238-2.953-1.042-3.874 0-7-.959-2.33-.959-2.33-4-4"/><path fill="#FD851B" d="M163 21h2v3l2 1-1 2h2v2h-3l-2-3 1 3-5 1 2-7h2z"/><path fill="#411B09" d="M170 19c7.09-.243 14.193-.269 21 2l1 2q-3.812-.466-7.625-.937l-2.16-.264A246 246 0 0 1 170 20z"/><path fill="#0D110E" d="m55 199 7 2v1l-6 1v3l2-1-1 4-5 1z"/><path fill="#5E4928" d="M92 198q2.844.467 5.688.938l3.199.527c2.715.467 5.414.98 8.113 1.535v1c-6.229 1.133-10.917.704-17-1z"/><path fill="#BB9A31" d="m265 179 1 2-2 1a78 78 0 0 0-2 5l-2-1 2-5-2 2c-3.125.125-3.125.125-6 0l1-3c3.473-1.158 6.36-1.069 10-1"/><path fill="#BC9D37" d="m58.188 179.375 2.73.336L63 180v3c-2 .043-4 .04-6 0l-1-1-2 2v-3l-5 4c.313-1.875.313-1.875 1-4 3.452-2.301 4.235-2.138 8.188-1.625"/><path fill="#E77B1E" d="M175 98h2c-.081 3.584-.194 7.167-.312 10.75l-.069 3.078-.107 2.969-.08 2.73c-.502 2.874-1.528 4.301-3.432 6.473a100 100 0 0 1 0-5l1-1c.157-1.486.25-2.98.316-4.473l.127-2.724.12-2.865.13-2.877q.16-3.53.307-7.061"/><path fill="#484B57" d="M184 10q3.408.676 6.813 1.375l3.832.773C198 13 198 13 201 15h-3v2l-2-1 1-2-6 1v-2h-6zm5 5 2 1Z"/><path fill="#E37F2A" d="M229 245c-5.41 2.033-10.368 3.355-16.152 3.691-2.092.166-2.092.166-3.848 2.309v-2l-4-1c3.247-.702 6.498-1.384 9.75-2.062l2.79-.604 2.694-.557 2.476-.523c2.392-.265 4.015.013 6.29.746"/><path fill="#5E4B2B" d="m268 229-1 3h-2l-2 4-1-3-2.75 1.063c-3.256.939-4.177.892-7.25-.063q3.435-1.255 6.875-2.5l1.973-.723C265.773 229 265.773 229 268 229"/><path fill="#201B07" d="m65 217 6 2-1 4q-2.159-.427-4.312-.875l-2.426-.492C61 221 61 221 58 219h7z"/><path fill="#C5A439" d="M59 212c1.651.396 3.296.817 4.938 1.25l2.777.703L69 215l1 4-12-4z"/><path fill="#D7B32E" d="m55 185 12 6v1l-2.375.438c-2.59.44-2.59.44-4.625 1.562l-1-3-2-1v-2l-5 1z"/><path fill="#E1731E" d="M77 177h2c.25 7.625.25 7.625-2 11v3l4 2c-2 1-2 1-5.125.063L73 192c.477-2.578 1.102-4.155 2.563-6.375 1.698-3.1 1.68-5.143 1.437-8.625"/><path fill="#FEE5C0" d="m130 163 2 1a2696 2696 0 0 1-3.312 3.813l-1.864 2.144c-3.271 3.664-4.81 5.365-9.824 6.043 3.427-4.712 7.595-8.25 12-12z"/><path fill="#FDEFDA" d="m148 141 4 2c.313 2.25.313 2.25 0 5-2.312 2.375-2.312 2.375-5 4l-3-1 2.563-2.187c2.786-2.55 2.786-2.55 2.25-5.625z"/><path fill="#DB792A" d="M281 116c3.165 4.747 3.11 8.318 3 14-2.322-1.741-3.852-3.025-4.3-5.977-.017-2.917-.021-5.38 1.3-8.023"/><path fill="#FDE9C9" d="M221 69v1c-3.123.699-6.248 1.382-9.375 2.063l-2.695.603-2.578.557-2.38.523C202 74 202 74 200 73c7.18-3.489 13.041-4.545 21-4"/><path fill="#2D303E" d="m53 56 2 8h-2l-1 2-5-1z"/><path fill="#050B1D" d="m69 42 1 3h3c1 3 1 3 0 6h-3l-1-3-3 1c.75-4.75.75-4.75 3-7"/><path fill="#EE862F" d="m108 255 2 1-1 5c4.102 1.015 4.102 1.015 8 0l1 2 3 2c-5.664-.365-10.007-1.055-15-4l2-1z"/><path fill="#FB8722" d="m218 250 3 1v4h-2v2l-7 1c1.443-3.366 3.333-5.51 6-8"/><path fill="#E37B25" d="M222 249c3.125.375 3.125.375 6 1v2l-9 5v-2h2l-.625-1.875L220 251z"/><path fill="#241C04" d="m263 207-1 4-7 2v-2l-4-1a665 665 0 0 1 4.313-1.5l2.425-.844C260 207 260 207 263 207"/><path fill="#BDA840" d="m260 204 1 2 2 1a345 345 0 0 1-3.75 1.5l-2.11.844C255 210 255 210 251 210v-3z"/><path fill="#D7B12A" d="M269 187c1.71 2.565 2.904 4.88 4.125 7.688l1.07 2.449L275 199c-1.812.625-1.812.625-4 1l-3-2 .5-3.25c.588-3.78.588-3.78.5-7.75"/><path fill="#F97304" d="M271 107h3v7l-6-1-1 2-1-2 1-2h2l1-3z"/><path fill="#FBDCB6" d="M140 97c3.432 3.432 3.955 7.11 4.195 11.867a261 261 0 0 1-.07 4.008l-.027 2.086c-.024 1.68-.06 3.36-.098 5.039h-1l-.148-2.379c-.416-5.846-1.108-11.04-2.852-16.621z"/><path fill="#E98430" d="M235 84h1c.135 2.752.234 5.497.313 8.25l.126 2.355c.048 2.239.03 4.205-.439 6.395-2.52 2.547-2.52 2.547-5 4l.621-2.055c1.832-6.328 2.965-12.37 3.379-18.945"/><path fill="#FC7D0D" d="M92 54h2l-1 3zm0 3 1 2 3 1c1.25 1.938 1.25 1.938 2 4l-1 2-2-1c-.625-2.562-.625-2.562-1-5l-1 3-3-1c.875-3.875.875-3.875 2-5"/><path fill="#FD7D0F" d="m174 30 6 2v3h-2l-1 5h-2q-.543-1.935-1.062-3.875l-.598-2.18C173 32 173 32 174 30"/><path fill="#2D140A" d="M192 23c1.915-.108 3.833-.186 5.75-.25l3.234-.14c3.654.473 4.738 1.582 7.016 4.39l-1 2-15-5z"/><path fill="#180C10" d="m101 258 4 3H95v-2h-3v-2c3.837-1.279 5.308-.507 9 1"/><path fill="#2B2D3D" d="m67 248 5 1v2h2v-2l4-1c0 3 0 3-1.5 4.688L75 254c-3.366-1.443-5.51-3.333-8-6"/><path fill="#E47A26" d="m196 195 2.25 2.313c2.833 2.885 2.833 2.885 6.75 5.687h-16v-1h9z"/><path fill="#FEEFD0" d="M80 86c2.375.313 2.375.313 5 1l2 3-2 1-3-3 2 5h-3l-2-2c.375-2.625.375-2.625 1-5"/><path fill="#F48523" d="M245 54q1.724 1.432 3.438 2.875l1.933 1.617C252 60 252 60 253 62l-4 1-1-5-4 1c0-4 0-4 1-5"/><path fill="#E77E25" d="M87 42v5h-3l-1 4v-3h-5c5.8-6 5.8-6 9-6"/><path fill="#D87B2F" d="M76 241c5.418.692 10.682 1.758 16 3v1c-6.625.125-6.625.125-10-1l-1 2z"/><path fill="#0F0E04" d="M162 230c2.75-.25 2.75-.25 6 0l4 4h-12l3-2z"/><path fill="#665334" d="M41 226c3.662.627 6.882 1.645 10.313 3.063l2.675 1.097L56 231c-1.676 1.14-1.676 1.14-4 2-2.543-.828-2.543-.828-5.187-2.25l-2.668-1.39C42 228 42 228 41 226"/><path fill="#090C18" d="m24 172 6 1-1 3h2l1-4v5l-7 1z"/><path fill="#EF7E1E" d="M180 130h2c-1.468 5.628-1.468 5.628-3.875 7.313-2.028.655-4.056 1.18-6.125 1.687q1.436-1.688 2.875-3.375l1.617-1.898A76 76 0 0 1 180 130"/><path fill="#FE8418" d="m66 63 2 1v4h3v-5l4 1-3 1 2 5-7-1-1-3-2-1h2z"/><path fill="#ED8B37" d="M70 54h2v6l-2.812.875C65.902 61.888 65.902 61.888 63 64c1.674-3.957 4.131-6.845 7-10"/><path fill="#2F3342" d="m68 41 2 1-1.375 1.625C66.783 46.317 65.92 48.885 65 52l-3-1c.414-4.833 2.464-6.827 6-10"/><path fill="#FD8A26" d="M197 28h5l1 3h2v2l3 1h-8z"/><path fill="#190D12" d="m96 29 9 1c-4.308 3.938-4.308 3.938-7.812 4.25L95 34z"/><path fill="#403309" d="M124 225h1v9c3.93-.575 3.93-.575 7-3v5h-8z"/><path fill="#D5B627" d="M133 232c3.044-.082 5.072.024 8 1v4l-2.875-.562c-3.024-.725-3.024-.725-5.125.562z"/><path fill="#BAA43F" d="M200 227v3l-9 1v-3c3.196-1.065 5.657-1.074 9-1"/><path fill="#2F2307" d="M92 223c2.252 2.688 3.882 4.646 5 8-1.316-.255-2.628-.53-3.937-.812l-2.215-.458L89 229l-1-3 4 1z"/><path fill="#F57508" d="M39 127v2h3v-2l4 2h-2l-1 3-7-1-1-3c2-1 2-1 4-1"/><path fill="#FEE9C8" d="M87 79c1.938.25 1.938.25 4 1l2 3-5-1 1 5-4-3c.875-3.875.875-3.875 2-5"/><path fill="#FEEAC8" d="M100 66c4.824.268 6.866 2.507 10 6-4 0-4 0-5.625-1.5L103 69h-2l-1 3a88 88 0 0 1-1-5z"/><path fill="#FD8115" d="m119 250 2 4 2-1v2l2 1-3 3v-2l-6-1z"/><path fill="#080B1E" d="M244 206h6l-2 1c.348 1.975.348 1.975 1 4l2 1-3 1v-2l-3 1z"/><path fill="#EC832D" d="m152 132 1.875.5c2.086.576 2.086.576 4.125.5q2.505.476 5 1l-4 4c-3.367-1.393-4.986-2.979-7-6"/><path fill="#FE821A" d="M42 102c2.125.938 2.125.938 4 2v2l4 1v2l-8-2v-2h-2v-2z"/><path fill="#FD8116" d="M268 85v2l-5 2v-2l-5-1c3.431-3.431 6-3.666 10-1"/><path fill="#F17A16" d="m233 77 5 1-1 15h-1l-.402-2.738-.536-3.575-.527-3.55c-.456-3.153-.456-3.153-1.535-6.137"/><path fill="#FD8118" d="m199 35 5 1-1 3h-2l-1 2h-2v-2l-3-1 4-1z"/><path fill="#280F05" d="m93 34 4 1-12 8c0-3 0-3 1.75-5.187C89 36 89 36 93 36z"/><path fill="#3D414D" d="m214 267 7 1c-3.125 2.645-6.088 3.844-10 5l1-4h2z"/><path fill="#F5770E" d="M142 263h3l1 2c2.025.652 2.025.652 4 1v3l-6-2-2 2v-3l-2-1h2z"/><path fill="#FE881F" d="M165 259c3 1 3 1 4 3h2l-1 5h-4c-.597-2.763-1-5.16-1-8"/><path fill="#B9A53F" d="M198 221v3l-8 1v-3c2.709-1.354 5.01-1.065 8-1"/><path fill="#D6B32B" d="M43 189c1 3 1 3-.312 6.125C41 198 41 198 39 199c-1.125-4.75-1.125-4.75 0-7h3z"/><path fill="#614504" d="m245 178 2 1-2 3 7-2 1 2c-2.76 1.804-3.89 2.013-7.25 1.625L243 183c.875-3.875.875-3.875 2-5"/><path fill="#614304" d="M69 177c1.938.75 1.938.75 4 2 .813 2.063.813 2.063 1 4-1 1-1 1-3.312 1.25-3.129-.291-4.375-1.194-6.688-3.25l8 1z"/><path fill="#D6B539" d="M33 180c-2.743 1.516-4.946 2.28-8.062 2.563-3.835.286-3.835.286-6.938 1.437l-3-2c6.148-1.628 11.64-2.202 18-2"/><path fill="#C09A2D" d="m247 175 3 1c.688 2.063.688 2.063 1 4-3 2-3 2-6 2l.563-1.875c.674-2.167.674-2.167-.563-4.125z"/><path fill="#E27418" d="M264 160h5c-4.013 3.511-8.21 5.765-13 8v-3l3.438-1.375c3.61-1.196 3.61-1.196 4.562-3.625"/><path fill="#693E17" d="M34 151h3c.75 1.688.75 1.688 1 4-1.812 2.75-1.812 2.75-4 5h-2c.875-6.75.875-6.75 2-9"/><path fill="#F77508" d="m242 54 3 1-1 3 4 1c-1.375 1.5-1.375 1.5-3 3h-2l-1-2-3-2c2-3 2-3 3-4"/><path fill="#070C1E" d="m101 21 2 3-1 3-6 1c.25-2.375.25-2.375 1-5 2.063-1.312 2.063-1.312 4-2"/><path fill="#23293B" d="m107 20 1 3-6 2-1-2-3-2c2.957-1.478 5.742-1.06 9-1"/><path fill="#27242E" d="M262 233c-.312 2.375-.312 2.375-1 5l-3 2v-4l-3-1c2.647-1.46 3.894-2 7-2"/><path fill="#090F20" d="M161 223h2c.125 6.75.125 6.75-1 9l-3-1c-.125-2.875-.125-2.875 0-6z"/><path fill="#281E04" d="M77 207c1.316.255 2.628.53 3.938.813l2.214.457L85 209l1 3-2 1-3-3 1 5c-2.252-2.688-3.882-4.646-5-8"/><path fill="#EE7E22" d="M206 181c6.475 1.344 6.475 1.344 9 4.5l1 2.5-1 2a1496 1496 0 0 1-4.5-3.937l-2.531-2.215L206 182z"/><path fill="#552E02" d="M280 151h3v17h-1v-14l-3 1z"/><path fill="#E68633" d="M260 71c6.942 6.76 6.942 6.76 7.125 10.688L267 84l-2-3-2 1-1.465-5.957c-.445-1.7-.98-3.376-1.535-5.043"/><path fill="#494B56" d="m248 247 3 1-8 7-1-3c3.75-3.875 3.75-3.875 6-5"/><path fill="#080C1D" d="m58 235 8 2-2 4h-3v-3l-3 1z"/><path fill="#BFA43A" d="m115 220 6 1-4 1v6h-2l-1 2z"/><path fill="#746346" d="M32 222c4.167.473 6.929 1.047 10 4v2c-4.43-1.208-6.981-2.517-10-6"/><path fill="#DB711D" d="m81 194 14 1-2 3q-2.159-.427-4.312-.875l-2.426-.492C84 196 84 196 81 194"/><path fill="#E0BA2C" d="m73 184-1 4h-6v-3c2.463-1.231 4.28-1.072 7-1"/><path fill="#FD8821" d="M92 40v6h-2l-2 3-1-7c3-2 3-2 5-2"/><path fill="#F5760B" d="M185 261h2v4h-2l-1 2-3-1v2h-2l-1-3 7-3z"/><path fill="#372A05" d="M235 217c2.296 3.445 2.54 5.938 3 10l-8 1v-2l5-1z"/><path fill="#D5B531" d="m101.5 217.375 2.406.273C106 218 106 218 108 219l-1 2c-1.626-.114-3.25-.242-4.875-.375-.905-.07-1.81-.14-2.742-.21C97 220 97 220 95 218c2.485-1.243 3.764-.954 6.5-.625"/><path fill="#2C2006" d="m222 211 2 1-1 2 4 1-7 2-1-5z"/><path fill="#F67D17" d="M184 189c4.813-.566 7.245 1.098 11 4l1 2c-4.109-1.128-8.076-2.335-12-4z"/><path fill="#DCBB29" d="m264 181 4 1 1 5-6-1z"/><path fill="#FCFDF9" d="M102 80h2l.875 2.375c.974 2.722.974 2.722 3.125 4.625l-3 1c-2.062-1.75-2.062-1.75-4-4 .25-2.25.25-2.25 1-4"/><path fill="#FE8012" d="M139 35c6 0 6 0 8 1l-2 5-1-3-4 2z"/><path fill="#DD7622" d="m210 30 10 4c-2 2-2 2-4.625 2.125L213 36l-1-4h-2z"/><path fill="#634C27" d="M282 202h3c1.43 2.354 2.087 3.48 1.625 6.25L286 210l-.812-1.937c-1.075-2.394-1.075-2.394-4.188-3.063z"/><path fill="#D9B236" d="M92 201c9.41.964 9.41.964 14 2v1c-1.77.081-3.541.14-5.312.188l-2.989.105C95 204 95 204 93.145 202.488z"/><path fill="#DCB62A" d="M287 194h5l1 3-6 3z"/><path fill="#D5B345" d="m300 182 9 1-5 5v-4z"/><path fill="#51412E" d="M307 181h6l-1 4-5 1 1-3z"/><path fill="#FCE5C8" d="m119 96 3 1v2l5 2-1-4h2v6l-6-1-1-4h-2z"/><path fill="#FD831B" d="m100 36-1 3h-2v2l2 1-2 1-3-2v-3c3-2 3-2 6-2"/><path fill="#494D5C" d="m78 33 2 1-2 5-7 1c2.22-2.908 3.93-4.953 7-7"/><path fill="#CAAF2D" d="m212 228 1 4 5-1 1 2-9 1v-5z"/><path fill="#7E6E56" d="M295 198c-3.124 2.523-6.38 4.273-10 6 .25-1.875.25-1.875 1-4 2.955-2.111 5.439-2.198 9-2"/><path fill="#F87C12" d="M273 132h4l-1 4 3-1 1 2h-7z"/><path fill="#FEF0D4" d="m214 119 3 2c-3.653 2.634-6.485 4.469-11 5 1.313-1.5 1.313-1.5 3-3h3z"/><path fill="#E27E2A" d="M275 97c2.686 2.686 3.06 5.376 4 9h-2v-3l-5 1-1-2 4-1z"/><path fill="#070C1C" d="m269 77 7 1-1 3-6 1z"/><path fill="#E97415" d="M95.25 39.938 97 42l-1 2h-4v-4l-5 2c2-3 2-3 3.875-3.937C93 38 93 38 95.25 39.937"/><path fill="#FE851D" d="M115 33c1 3 1 3 0 6h-6v-3l2.438-.937c2.453-.826 2.453-.826 3.562-2.063"/><path fill="#FE8114" d="M187 33v2h-2v2h-2l1 4-3-1c-.687-2.062-.687-2.062-1-4h3v-2c2-1 2-1 4-1"/><path fill="#FD8119" d="m133 22 2 1c.407 2.322.744 4.657 1 7h-2l-2-4-2 2-1-4c1.875-1.062 1.875-1.062 4-2"/><path fill="#FE871B" d="m179 260 1 3 5-3 1 3c-4.43 2.092-4.43 2.092-7.312 1.625L177 264z"/><path fill="#F77712" d="m82 244 7 1v5l-1-2c-1.946-.59-1.946-.59-4-1l-2-1z"/><path fill="#B49818" d="m153.188 236.438 2.73.308L158 237v1l-2.937.375L152 239l-1 2c-2.217-1.109-4.036-2.494-6-4 3.2-1.067 4.885-.948 8.188-.562"/><path fill="#D0B334" d="M48 205h5c-.547 3.375-1.055 5.082-3 8z"/><path fill="#80440A" d="m118 203 12 1v1l-13 1z"/><path fill="#EB7F25" d="M144 138c4.8 3.446 4.8 3.446 5.813 6.25L150 146l-2 1c-4-6.75-4-6.75-4-9"/><path fill="#F37810" d="m104 125 2 2 3 .5c3 .5 3 .5 5 2.5h-9z"/><path fill="#FE8720" d="m38 117 4 1v6l-2 1-2-1 .563-1.812c.658-2.352.658-2.352-.563-5.188"/><path fill="#E88839" d="m117 89 6 5-4 2c-2-2-2-2-2.125-4.625z"/><path fill="#252938" d="m37 83 2 4h-2v2l-4 1c.602-2.02 1.273-4.021 2-6z"/><path fill="#424653" d="m127 274 2 2-2 3 3 1-9-1 3-2 1-2z"/><path fill="#3B3F4C" d="m91 261 3 1v5l-6-2v-2h3z"/><path fill="#583102" d="m77 239 3.813.375 2.144.21C85 240 85 240 88 242l-3.812.063-2.145.035C80 242 80 242 77 241z"/><path fill="#171515" d="m145 229 3 1-1 1a100 100 0 0 0 0 5h-5v-2h3z"/><path fill="#15140A" d="M68 206h7l-1 4c-1.875-.312-1.875-.312-4-1z"/><path fill="#FEF2DB" d="m196 194 5 1 1 6c-4.875-4.75-4.875-4.75-6-7"/><path fill="#CCA934" d="m65 182 3 1v2l-3-1zm0 3 1 3h5v2l-6-1z"/><path fill="#BE9E33" d="M282 154v7l-6-3c3.75-4 3.75-4 6-4"/><path fill="#EB781A" d="M145 123h2l2 3 2 1c.625 2.563.625 2.563 1 5-5.785-4.43-5.785-4.43-6.875-7.312z"/><path fill="#080C1A" d="m283 107 3 2-1 4h-2l-1 2c-.625-2.875-.625-2.875-1-6z"/><path fill="#2D1811" d="m249 57 9 3-3 1-1 2z"/><path fill="#FE851C" d="m218 43 2 1c.625 2.563.625 2.563 1 5l-3 1-1-4h-2v-2z"/><path fill="#0C1425" d="m231 30 3 1-3 7-2-1 1-2-2-1z"/><path fill="#FE8215" d="m169 28 1 2 3-1v2h-2l1 6c-3-2-3-2-3.75-4.5C168 30 168 30 169 28"/><path fill="#D9823B" d="M187 268c-3.035 2.024-4.194 2.321-7.687 2.625l-2.45.227L175 271c3.76-3.76 6.973-3.251 12-3"/><path fill="#6E3E0A" d="m220 243 1 3-8 1-1-3c5.75-1 5.75-1 8-1"/><path fill="#81725E" d="M277 227c-2.686 2.686-5.376 3.06-9 4v-3c3.196-1.065 5.657-1.074 9-1"/><path fill="#807160" d="m287 208 2 1c.594 2.649.742 5.292 1 8h-2c-2.125-6.75-2.125-6.75-1-9"/><path fill="#C2A935" d="M265.75 209.875 268 211c-2.62 1.746-4.038 2.387-7 3l-2-3c2.729-1.82 3.536-2.148 6.75-1.125"/><path fill="#FBEBCF" d="M100 192v2h-2l-1 5-4-2c4.75-5 4.75-5 7-5"/><path fill="#FC8722" d="m40 107 1 2h2c-1 2-1 2-3 3l1 3h-3c-.2-3.716-.152-4.772 2-8"/><path fill="#F9750B" d="M80 48h3l3 7-6-2z"/><path fill="#190C0D" d="m239 44 4 2v5l-5-4z"/><path fill="#F97405" d="M129 25c1.938.313 1.938.313 4 1l1 3-4 2v-2h-2z"/><path fill="#FD8217" d="m148 25 5 2-2 3c-.633 2.113-.633 2.113-1 4-1.498-3.371-2-5.204-2-9"/><path fill="#0D0D17" d="M258 236c-2.014 2.014-3.33 3.058-6 4-2.25-.875-2.25-.875-4-2 3.508-1.604 6.144-2.22 10-2"/><path fill="#3F3F45" d="M54 233h4v6c-2-1.312-2-1.312-4-3z"/><path fill="#B6A045" d="M165 225c1.5 1.375 1.5 1.375 3 3v2h-5c.875-3.875.875-3.875 2-5"/><path fill="#CEB33A" d="m171 221 3 1 1 3 2 1-1 4a466 466 0 0 1-2.5-3.375l-1.406-1.898C171 223 171 223 171 221"/><path fill="#693A07" d="m72 190 1 2c3.03.658 3.03.658 6 1l-2 3-5-2z"/><path fill="#CAAA44" d="m243 177 3 1-3 5 3 1-3 2c-1.366-2.732-1.128-4.982-1-8z"/><path fill="#D9B636" d="M254 183h6c-2.363 2.526-3.665 3.888-7 5z"/><path fill="#E6761D" d="m272 152 6 1c-1.375 2-1.375 2-3 4h-2z"/><path fill="#FC8720" d="m42 147 1 2-2 3h-3v-2h-3l1-2c3.063-.625 3.063-.625 6-1"/><path fill="#FFEDD5" d="m170 127 2 1-5 6-3-1z"/><path fill="#FFEACD" d="m146 127 6 5-3 1-4-4z"/><path fill="#ED8329" d="m222 116 1 3-2 3c-2.625.188-2.625.188-5 0z"/><path fill="#F77A12" d="M37 116h3l-1 3 1 2h-2l-1 3c-1.125-5.75-1.125-5.75 0-8"/><path fill="#FD8720" d="M257 79h6l-1 4-5-1z"/><path fill="#FC8723" d="m252 67 2 1-1 7h-3z"/><path fill="#F67609" d="m100 36 2 1c.625 2.563.625 2.563 1 5l-1-2h-2l-1 2-2-1c0-2 0-2 1.5-3.625z"/><path fill="#B66E35" d="m243 241-6 4v-2l-4-1c6.625-2.125 6.625-2.125 10-1"/><path fill="#412D1B" d="M53 232c2.75-.25 2.75-.25 6 0 2.375 2 2.375 2 4 4l-5-1v-2l-5 1z"/><path fill="#D4B02F" d="m261 228 5 1c-2.918 1.945-4.625 2.453-8 3z"/><path fill="#111318" d="m188 220 2 2c-.375 2.125-.375 2.125-1 4-2.5-1.375-2.5-1.375-5-3v-2c1.875-.625 1.875-.625 4-1"/><path fill="#0C0C10" d="M192 217h8l-4 1v2h-5z"/><path fill="#050D20" d="M85 216h5v3l-4 1z"/><path fill="#DEBB23" d="M238 212h5v5l-4-1 1-2z"/><path fill="#C3AD48" d="m59 212 6 2v2l-7-1z"/><path fill="#C3AD3E" d="M237 206h5l2 6h-3l-.312-1.875c-.563-2.49-.563-2.49-3.688-4.125"/><path fill="#D28342" d="m119 197 1 2c-.937 2.125-.937 2.125-2 4h-6l2.375-1.875c2.593-2.024 2.593-2.024 4.625-4.125"/><path fill="#291F04" d="m55 199 7 2v1l-2.875.375c-3.212.342-3.212.342-5.125 2.625z"/><path fill="#5B2E01" d="M241 185c2.993 1.098 3.846 1.677 5.25 4.625L247 192h-2c-4-4.47-4-4.47-4-7"/><path fill="#63512B" d="M310 186v2c-3 2-3 2-5.187 1.625L303 189c2.5-3 2.738-3 7-3"/><path fill="#5A4827" d="M16 181v1l-9 1v-2c3.069-1.534 5.7-.55 9 0"/><path fill="#D2B035" d="m58 169 9 5-1 2a396 396 0 0 1-4-2.375l-2.25-1.336L58 171z"/><path fill="#F48530" d="M282 143h2c.125 5.75.125 5.75-1 8l-2-1c-.125-4.75-.125-4.75 1-7"/><path fill="#C4610E" d="m32 130 4 4-2 4-2-1z"/><path fill="#E68432" d="M230 105c.75 1.688.75 1.688 1 4-1.812 2.75-1.812 2.75-4 5h-2c1.498-3.112 3.2-6.053 5-9"/><path fill="#FFF4DD" d="m100 103 6 5c-1.875.625-1.875.625-4 1l-2-2z"/><path fill="#FEE5C4" d="m104 80 6 5c-1.875.625-1.875.625-4 1l-2-2z"/><path fill="#3A3E4B" d="m261 54 5 5-2 1v-2h-5v-2h2z"/><path fill="#FE8519" d="m211 36 4 1 1 4-3 1z"/></svg>